<svg version="1.1" viewBox="0.0 0.0 790.0 488.0" fill="none" stroke="none" stroke-linecap="square" stroke-miterlimit="10" width="790" height="488" xmlns:xlink="http://www.w3.org/1999/xlink" xmlns="http://www.w3.org/2000/svg"><path fill="#ffffff" d="M0 0L790.0 0L790.0 488.0L0 488.0L0 0Z" fill-rule="nonzero"/><path stroke="#333333" stroke-width="1.0" stroke-linecap="butt" d="M51.5 443.5L620.5 443.5" fill-rule="nonzero"/><path stroke="#cccccc" stroke-width="1.0" stroke-linecap="butt" d="M51.5 319.5L620.5 319.5" fill-rule="nonzero"/><path stroke="#cccccc" stroke-width="1.0" stroke-linecap="butt" d="M51.5 195.5L620.5 195.5" fill-rule="nonzero"/><path stroke="#cccccc" stroke-width="1.0" stroke-linecap="butt" d="M51.5 71.5L620.5 71.5" fill-rule="nonzero"/><path stroke="#eeeeee" stroke-width="1.0" stroke-linecap="butt" d="M477.85333 229.23555L477.85333 245.23555" fill-rule="nonzero"/><path stroke="#eeeeee" stroke-width="1.0" stroke-linecap="butt" d="M193.55112 130.05333L193.55112 146.05333" fill-rule="nonzero"/><path stroke="#eeeeee" stroke-width="1.0" stroke-linecap="butt" d="M477.85333 204.44L477.85333 220.44" fill-rule="nonzero"/><path stroke="#eeeeee" stroke-width="1.0" stroke-linecap="butt" d="M193.55112 254.03111L193.55112 270.0311" fill-rule="nonzero"/><path stroke="#eeeeee" stroke-width="1.0" stroke-linecap="butt" d="M477.85333 130.05333L477.85333 146.05333" fill-rule="nonzero"/><path stroke="#eeeeee" stroke-width="1.0" stroke-linecap="butt" d="M193.55112 179.64444L193.55112 195.64444" fill-rule="nonzero"/><path stroke="#eeeeee" stroke-width="1.0" stroke-linecap="butt" d="M477.85333 378.00888L477.85333 394.00888" fill-rule="nonzero"/><path stroke="#eeeeee" stroke-width="1.0" stroke-linecap="butt" d="M477.85333 303.62222L477.85333 319.62222" fill-rule="nonzero"/><path stroke="#eeeeee" stroke-width="1.0" stroke-linecap="butt" d="M193.55112 353.21335L193.55112 369.21335" fill-rule="nonzero"/><path stroke="#eeeeee" stroke-width="1.0" stroke-linecap="butt" d="M477.85333 353.21335L477.85333 369.21335" fill-rule="nonzero"/><path stroke="#eeeeee" stroke-width="1.0" stroke-linecap="butt" d="M193.55112 229.23555L193.55112 245.23555" fill-rule="nonzero"/><path stroke="#eeeeee" stroke-width="1.0" stroke-linecap="butt" d="M477.85333 328.4178L477.85333 344.4178" fill-rule="nonzero"/><clipPath id="id_0"><path d="M51.4 71.666664L620.00446 71.666664L620.00446 443.6L51.4 443.6L51.4 71.666664Z" clip-rule="nonzero"/></clipPath><path stroke="#4285f4" stroke-width="2.0" stroke-linecap="butt" clip-path="url(#id_0)" d="M193.55112 71.666664L477.85333 245.23555" fill-rule="nonzero"/><path stroke="#ea4335" stroke-width="2.0" stroke-linecap="butt" clip-path="url(#id_0)" d="M193.55112 146.05333L477.85333 220.44" fill-rule="nonzero"/><path stroke="#fbbc04" stroke-width="2.0" stroke-linecap="butt" clip-path="url(#id_0)" d="M193.55112 270.0311L477.85333 146.05333" fill-rule="nonzero"/><path stroke="#34a853" stroke-width="2.0" stroke-linecap="butt" clip-path="url(#id_0)" d="M193.55112 195.64444L477.85333 394.00888" fill-rule="nonzero"/><path stroke="#ff6d01" stroke-width="2.0" stroke-linecap="butt" clip-path="url(#id_0)" d="M193.55112 96.46222L477.85333 319.62222" fill-rule="nonzero"/><path stroke="#46bdc6" stroke-width="2.0" stroke-linecap="butt" clip-path="url(#id_0)" d="M193.55112 369.21335L477.85333 369.21335" fill-rule="nonzero"/><path stroke="#7baaf7" stroke-width="2.0" stroke-linecap="butt" clip-path="url(#id_0)" d="M193.55112 245.23555L477.85333 344.4178" fill-rule="nonzero"/><path fill="#000000" fill-opacity="0.0" clip-path="url(#id_0)" d="M196.55112 71.666664C196.55112 73.323524 195.20796 74.666664 193.55112 74.666664C191.89426 74.666664 190.55112 73.323524 190.55112 71.666664C190.55112 70.00981 191.89426 68.666664 193.55112 68.666664C195.20796 68.666664 196.55112 70.00981 196.55112 71.666664Z" fill-rule="nonzero"/><path fill="#000000" fill-opacity="0.0" clip-path="url(#id_0)" d="M480.85333 245.23555C480.85333 246.89241 479.5102 248.23555 477.85333 248.23555C476.19647 248.23555 474.85333 246.89241 474.85333 245.23555C474.85333 243.5787 476.19647 242.23555 477.85333 242.23555C479.5102 242.23555 480.85333 243.5787 480.85333 245.23555Z" fill-rule="nonzero"/><path fill="#000000" fill-opacity="0.0" clip-path="url(#id_0)" d="M196.55112 146.05333C196.55112 147.71019 195.20796 149.05333 193.55112 149.05333C191.89426 149.05333 190.55112 147.71019 190.55112 146.05333C190.55112 144.39648 191.89426 143.05333 193.55112 143.05333C195.20796 143.05333 196.55112 144.39648 196.55112 146.05333Z" fill-rule="nonzero"/><path fill="#000000" fill-opacity="0.0" clip-path="url(#id_0)" d="M480.85333 220.44C480.85333 222.09685 479.5102 223.44 477.85333 223.44C476.19647 223.44 474.85333 222.09685 474.85333 220.44C474.85333 218.78314 476.19647 217.44 477.85333 217.44C479.5102 217.44 480.85333 218.78314 480.85333 220.44Z" fill-rule="nonzero"/><path fill="#000000" fill-opacity="0.0" clip-path="url(#id_0)" d="M196.55112 270.0311C196.55112 271.68796 195.20796 273.0311 193.55112 273.0311C191.89426 273.0311 190.55112 271.68796 190.55112 270.0311C190.55112 268.37427 191.89426 267.0311 193.55112 267.0311C195.20796 267.0311 196.55112 268.37427 196.55112 270.0311Z" fill-rule="nonzero"/><path fill="#000000" fill-opacity="0.0" clip-path="url(#id_0)" d="M480.85333 146.05333C480.85333 147.71019 479.5102 149.05333 477.85333 149.05333C476.19647 149.05333 474.85333 147.71019 474.85333 146.05333C474.85333 144.39648 476.19647 143.05333 477.85333 143.05333C479.5102 143.05333 480.85333 144.39648 480.85333 146.05333Z" fill-rule="nonzero"/><path fill="#000000" fill-opacity="0.0" clip-path="url(#id_0)" d="M196.55112 195.64444C196.55112 197.3013 195.20796 198.64444 193.55112 198.64444C191.89426 198.64444 190.55112 197.3013 190.55112 195.64444C190.55112 193.9876 191.89426 192.64444 193.55112 192.64444C195.20796 192.64444 196.55112 193.9876 196.55112 195.64444Z" fill-rule="nonzero"/><path fill="#000000" fill-opacity="0.0" clip-path="url(#id_0)" d="M480.85333 394.00888C480.85333 395.66574 479.5102 397.00888 477.85333 397.00888C476.19647 397.00888 474.85333 395.66574 474.85333 394.00888C474.85333 392.35202 476.19647 391.00888 477.85333 391.00888C479.5102 391.00888 480.85333 392.35202 480.85333 394.00888Z" fill-rule="nonzero"/><path fill="#000000" fill-opacity="0.0" clip-path="url(#id_0)" d="M196.55112 96.46222C196.55112 98.11908 195.20796 99.46222 193.55112 99.46222C191.89426 99.46222 190.55112 98.11908 190.55112 96.46222C190.55112 94.80537 191.89426 93.46222 193.55112 93.46222C195.20796 93.46222 196.55112 94.80537 196.55112 96.46222Z" fill-rule="nonzero"/><path fill="#000000" fill-opacity="0.0" clip-path="url(#id_0)" d="M480.85333 319.62222C480.85333 321.27908 479.5102 322.62222 477.85333 322.62222C476.19647 322.62222 474.85333 321.27908 474.85333 319.62222C474.85333 317.96536 476.19647 316.62222 477.85333 316.62222C479.5102 316.62222 480.85333 317.96536 480.85333 319.62222Z" fill-rule="nonzero"/><path fill="#000000" fill-opacity="0.0" clip-path="url(#id_0)" d="M196.55112 369.21335C196.55112 370.87018 195.20796 372.21335 193.55112 372.21335C191.89426 372.21335 190.55112 370.87018 190.55112 369.21335C190.55112 367.5565 191.89426 366.21335 193.55112 366.21335C195.20796 366.21335 196.55112 367.5565 196.55112 369.21335Z" fill-rule="nonzero"/><path fill="#000000" fill-opacity="0.0" clip-path="url(#id_0)" d="M480.85333 369.21335C480.85333 370.87018 479.5102 372.21335 477.85333 372.21335C476.19647 372.21335 474.85333 370.87018 474.85333 369.21335C474.85333 367.5565 476.19647 366.21335 477.85333 366.21335C479.5102 366.21335 480.85333 367.5565 480.85333 369.21335Z" fill-rule="nonzero"/><path fill="#000000" fill-opacity="0.0" clip-path="url(#id_0)" d="M196.55112 245.23555C196.55112 246.89241 195.20796 248.23555 193.55112 248.23555C191.89426 248.23555 190.55112 246.89241 190.55112 245.23555C190.55112 243.5787 191.89426 242.23555 193.55112 242.23555C195.20796 242.23555 196.55112 243.5787 196.55112 245.23555Z" fill-rule="nonzero"/><path fill="#000000" fill-opacity="0.0" clip-path="url(#id_0)" d="M480.85333 344.4178C480.85333 346.07465 479.5102 347.4178 477.85333 347.4178C476.19647 347.4178 474.85333 346.07465 474.85333 344.4178C474.85333 342.76093 476.19647 341.4178 477.85333 341.4178C479.5102 341.4178 480.85333 342.76093 480.85333 344.4178Z" fill-rule="nonzero"/><path stroke="#ffffff" stroke-width="3.0" stroke-linejoin="round" stroke-linecap="round" d="M480.24396 220.92305Q480.24396 221.56367 479.9002 222.06367Q479.55646 222.56367 478.99396 222.84492Q479.6502 223.12617 480.04083 223.68867Q480.43146 224.23555 480.43146 224.93867Q480.43146 226.03242 479.68146 226.7043Q478.94708 227.36055 477.72833 227.36055Q476.49396 227.36055 475.74396 226.7043Q475.00958 226.03242 475.00958 224.93867Q475.00958 224.23555 475.38458 223.68867Q475.75958 223.12617 476.43146 222.84492Q475.86896 222.56367 475.54083 222.06367Q475.2127 221.56367 475.2127 220.92305Q475.2127 219.84492 475.9002 219.21992Q476.5877 218.5793 477.72833 218.5793Q478.85333 218.5793 479.54083 219.21992Q480.24396 219.84492 480.24396 220.92305ZM479.35333 224.90742Q479.35333 224.18867 478.9002 223.75117Q478.44708 223.29805 477.7127 223.29805Q476.97833 223.29805 476.5252 223.75117Q476.0877 224.18867 476.0877 224.92305Q476.0877 225.6418 476.5252 226.06367Q476.9627 226.46992 477.72833 226.46992Q478.47833 226.46992 478.91583 226.04805Q479.35333 225.62617 479.35333 224.90742ZM477.72833 219.46992Q477.0877 219.46992 476.68146 219.87617Q476.29083 220.2668 476.29083 220.9543Q476.29083 221.59492 476.68146 222.00117Q477.07208 222.40742 477.7127 222.40742Q478.36896 222.40742 478.75958 222.00117Q479.1502 221.59492 479.1502 220.9543Q479.1502 220.29805 478.74396 219.8918Q478.3377 219.46992 477.72833 219.46992Z" fill-rule="nonzero"/><path fill="#4285f4" d="M480.24396 220.92305Q480.24396 221.56367 479.9002 222.06367Q479.55646 222.56367 478.99396 222.84492Q479.6502 223.12617 480.04083 223.68867Q480.43146 224.23555 480.43146 224.93867Q480.43146 226.03242 479.68146 226.7043Q478.94708 227.36055 477.72833 227.36055Q476.49396 227.36055 475.74396 226.7043Q475.00958 226.03242 475.00958 224.93867Q475.00958 224.23555 475.38458 223.68867Q475.75958 223.12617 476.43146 222.84492Q475.86896 222.56367 475.54083 222.06367Q475.2127 221.56367 475.2127 220.92305Q475.2127 219.84492 475.9002 219.21992Q476.5877 218.5793 477.72833 218.5793Q478.85333 218.5793 479.54083 219.21992Q480.24396 219.84492 480.24396 220.92305ZM479.35333 224.90742Q479.35333 224.18867 478.9002 223.75117Q478.44708 223.29805 477.7127 223.29805Q476.97833 223.29805 476.5252 223.75117Q476.0877 224.18867 476.0877 224.92305Q476.0877 225.6418 476.5252 226.06367Q476.9627 226.46992 477.72833 226.46992Q478.47833 226.46992 478.91583 226.04805Q479.35333 225.62617 479.35333 224.90742ZM477.72833 219.46992Q477.0877 219.46992 476.68146 219.87617Q476.29083 220.2668 476.29083 220.9543Q476.29083 221.59492 476.68146 222.00117Q477.07208 222.40742 477.7127 222.40742Q478.36896 222.40742 478.75958 222.00117Q479.1502 221.59492 479.1502 220.9543Q479.1502 220.29805 478.74396 219.8918Q478.3377 219.46992 477.72833 219.46992Z" fill-rule="nonzero"/><path stroke="#ffffff" stroke-width="3.0" stroke-linejoin="round" stroke-linecap="round" d="M190.81674 128.05333L189.73862 128.05333L189.73862 120.83459L187.55112 121.63146L187.55112 120.64709L190.66049 119.47521L190.81674 119.47521L190.81674 128.05333ZM199.84799 128.05333L194.25424 128.05333L194.25424 127.27209L197.20737 123.99084Q197.86362 123.24084 198.11362 122.78771Q198.36362 122.31896 198.36362 121.81896Q198.36362 121.14709 197.95737 120.72521Q197.56674 120.28771 196.87924 120.28771Q196.08237 120.28771 195.62924 120.75646Q195.17612 121.20959 195.17612 122.03771L194.09799 122.03771Q194.09799 120.85021 194.84799 120.13146Q195.61362 119.39709 196.87924 119.39709Q198.08237 119.39709 198.76987 120.02209Q199.45737 120.64709 199.45737 121.69396Q199.45737 122.94396 197.84799 124.69396L195.56674 127.16271L199.84799 127.16271L199.84799 128.05333Z" fill-rule="nonzero"/><path fill="#ea4335" d="M190.81674 128.05333L189.73862 128.05333L189.73862 120.83458L187.55112 121.631454L187.55112 120.64708L190.66049 119.475204L190.81674 119.475204L190.81674 128.05333ZM199.84799 128.05333L194.25424 128.05333L194.25424 127.27208L197.20737 123.99083Q197.86362 123.24083 198.11362 122.787704Q198.36362 122.318954 198.36362 121.818954Q198.36362 121.14708 197.95737 120.725204Q197.56674 120.287704 196.87924 120.287704Q196.08237 120.287704 195.62924 120.756454Q195.17612 121.20958 195.17612 122.037704L194.09799 122.037704Q194.09799 120.850204 194.84799 120.131454Q195.61362 119.39708 196.87924 119.39708Q198.08237 119.39708 198.76987 120.02208Q199.45737 120.64708 199.45737 121.693954Q199.45737 122.943954 197.84799 124.693954L195.56674 127.162704L199.84799 127.162704L199.84799 128.05333Z" fill-rule="nonzero"/><path stroke="#ffffff" stroke-width="3.0" stroke-linejoin="round" stroke-linecap="round" d="M479.2127 198.69Q478.88458 199.09625 478.4002 199.34625Q477.93146 199.58063 477.36896 199.58063Q476.63458 199.58063 476.0877 199.22125Q475.54083 198.86188 475.24396 198.20563Q474.94708 197.53375 474.94708 196.73688Q474.94708 195.89313 475.25958 195.20563Q475.5877 194.51813 476.18146 194.15875Q476.79083 193.78375 477.5877 193.78375Q478.85333 193.78375 479.57208 194.73688Q480.30646 195.69 480.30646 197.315L480.30646 197.6275Q480.30646 200.1275 479.32208 201.26813Q478.3377 202.40875 476.35333 202.44L476.13458 202.44L476.13458 201.53375L476.36896 201.53375Q477.7127 201.5025 478.43146 200.83063Q479.1502 200.15875 479.2127 198.69ZM477.54083 198.69Q478.0877 198.69 478.54083 198.36188Q479.00958 198.01813 479.22833 197.53375L479.22833 197.09625Q479.22833 196.03375 478.75958 195.36188Q478.29083 194.69 477.5877 194.69Q476.86896 194.69 476.43146 195.23688Q476.00958 195.78375 476.00958 196.69Q476.00958 197.565 476.41583 198.1275Q476.8377 198.69 477.54083 198.69Z" fill-rule="nonzero"/><path fill="#ea4335" d="M479.2127 198.69Q478.88458 199.09625 478.4002 199.34625Q477.93146 199.58063 477.36896 199.58063Q476.63458 199.58063 476.0877 199.22125Q475.54083 198.86188 475.24396 198.20563Q474.94708 197.53375 474.94708 196.73688Q474.94708 195.89313 475.25958 195.20563Q475.5877 194.51813 476.18146 194.15875Q476.79083 193.78375 477.5877 193.78375Q478.85333 193.78375 479.57208 194.73688Q480.30646 195.69 480.30646 197.315L480.30646 197.6275Q480.30646 200.1275 479.32208 201.26813Q478.3377 202.40875 476.35333 202.44L476.13458 202.44L476.13458 201.53375L476.36896 201.53375Q477.7127 201.5025 478.43146 200.83063Q479.1502 200.15875 479.2127 198.69ZM477.54083 198.69Q478.0877 198.69 478.54083 198.36188Q479.00958 198.01813 479.22833 197.53375L479.22833 197.09625Q479.22833 196.03375 478.75958 195.36188Q478.29083 194.69 477.5877 194.69Q476.86896 194.69 476.43146 195.23688Q476.00958 195.78375 476.00958 196.69Q476.00958 197.565 476.41583 198.1275Q476.8377 198.69 477.54083 198.69Z" fill-rule="nonzero"/><path stroke="#ffffff" stroke-width="3.0" stroke-linejoin="round" stroke-linecap="round" d="M196.26987 244.10924L192.73862 252.03111L191.59799 252.03111L195.11362 244.39049L190.50424 244.39049L190.50424 243.49986L196.26987 243.49986L196.26987 244.10924Z" fill-rule="nonzero"/><path fill="#fbbc04" d="M196.26987 244.10924L192.73862 252.03111L191.59799 252.03111L195.11362 244.39049L190.50424 244.39049L190.50424 243.49986L196.26987 243.49986L196.26987 244.10924Z" fill-rule="nonzero"/><path stroke="#ffffff" stroke-width="3.0" stroke-linejoin="round" stroke-linecap="round" d="M475.11896 128.05333L474.04083 128.05333L474.04083 120.83459L471.85333 121.63146L471.85333 120.64709L474.9627 119.47521L475.11896 119.47521L475.11896 128.05333ZM484.1502 128.05333L478.55646 128.05333L478.55646 127.27209L481.50958 123.99084Q482.16583 123.24084 482.41583 122.78771Q482.66583 122.31896 482.66583 121.81896Q482.66583 121.14709 482.25958 120.72521Q481.86896 120.28771 481.18146 120.28771Q480.38458 120.28771 479.93146 120.75646Q479.47833 121.20959 479.47833 122.03771L478.4002 122.03771Q478.4002 120.85021 479.1502 120.13146Q479.91583 119.39709 481.18146 119.39709Q482.38458 119.39709 483.07208 120.02209Q483.75958 120.64709 483.75958 121.69396Q483.75958 122.94396 482.1502 124.69396L479.86896 127.16271L484.1502 127.16271L484.1502 128.05333Z" fill-rule="nonzero"/><path fill="#fbbc04" d="M475.11896 128.05333L474.04083 128.05333L474.04083 120.83458L471.85333 121.631454L471.85333 120.64708L474.9627 119.475204L475.11896 119.475204L475.11896 128.05333ZM484.1502 128.05333L478.55646 128.05333L478.55646 127.27208L481.50958 123.99083Q482.16583 123.24083 482.41583 122.787704Q482.66583 122.318954 482.66583 121.818954Q482.66583 121.14708 482.25958 120.725204Q481.86896 120.287704 481.18146 120.287704Q480.38458 120.287704 479.93146 120.756454Q479.47833 121.20958 479.47833 122.037704L478.4002 122.037704Q478.4002 120.850204 479.1502 120.131454Q479.91583 119.39708 481.18146 119.39708Q482.38458 119.39708 483.07208 120.02208Q483.75958 120.64708 483.75958 121.693954Q483.75958 122.943954 482.1502 124.693954L479.86896 127.162704L484.1502 127.162704L484.1502 128.05333Z" fill-rule="nonzero"/><path stroke="#ffffff" stroke-width="3.0" stroke-linejoin="round" stroke-linecap="round" d="M190.81674 177.64444L189.73862 177.64444L189.73862 170.42569L187.55112 171.22256L187.55112 170.23819L190.66049 169.06631L190.81674 169.06631L190.81674 177.64444ZM199.61362 174.00381Q199.61362 175.91006 198.95737 176.84756Q198.31674 177.76944 196.92612 177.76944Q195.56674 177.76944 194.91049 176.86319Q194.25424 175.95694 194.22299 174.14444L194.22299 172.70694Q194.22299 170.81631 194.86362 169.91006Q195.51987 168.98819 196.91049 168.98819Q198.28549 168.98819 198.94174 169.87881Q199.59799 170.75381 199.61362 172.59756L199.61362 174.00381ZM198.51987 172.51944Q198.51987 171.14444 198.12924 170.51944Q197.75424 169.87881 196.91049 169.87881Q196.08237 169.87881 195.69174 170.51944Q195.31674 171.14444 195.31674 172.44131L195.31674 174.17569Q195.31674 175.55069 195.70737 176.22256Q196.11362 176.87881 196.92612 176.87881Q197.72299 176.87881 198.11362 176.25381Q198.50424 175.62881 198.51987 174.30069L198.51987 172.51944Z" fill-rule="nonzero"/><path fill="#34a853" d="M190.81674 177.64444L189.73862 177.64444L189.73862 170.42569L187.55112 171.22256L187.55112 170.23819L190.66049 169.06631L190.81674 169.06631L190.81674 177.64444ZM199.61362 174.00381Q199.61362 175.91006 198.95737 176.84756Q198.31674 177.76944 196.92612 177.76944Q195.56674 177.76944 194.91049 176.86319Q194.25424 175.95694 194.22299 174.14444L194.22299 172.70694Q194.22299 170.81631 194.86362 169.91006Q195.51987 168.98819 196.91049 168.98819Q198.28549 168.98819 198.94174 169.87881Q199.59799 170.75381 199.61362 172.59756L199.61362 174.00381ZM198.51987 172.51944Q198.51987 171.14444 198.12924 170.51944Q197.75424 169.87881 196.91049 169.87881Q196.08237 169.87881 195.69174 170.51944Q195.31674 171.14444 195.31674 172.44131L195.31674 174.17569Q195.31674 175.55069 195.70737 176.22256Q196.11362 176.87881 196.92612 176.87881Q197.72299 176.87881 198.11362 176.25381Q198.50424 175.62881 198.51987 174.30069L198.51987 172.51944Z" fill-rule="nonzero"/><path stroke="#ffffff" stroke-width="3.0" stroke-linejoin="round" stroke-linecap="round" d="M480.6502 376.00888L475.05646 376.00888L475.05646 375.22763L478.00958 371.94638Q478.66583 371.19638 478.91583 370.74326Q479.16583 370.2745 479.16583 369.7745Q479.16583 369.10263 478.75958 368.68076Q478.36896 368.24326 477.68146 368.24326Q476.88458 368.24326 476.43146 368.712Q475.97833 369.16513 475.97833 369.99326L474.9002 369.99326Q474.9002 368.80576 475.6502 368.087Q476.41583 367.35263 477.68146 367.35263Q478.88458 367.35263 479.57208 367.97763Q480.25958 368.60263 480.25958 369.6495Q480.25958 370.8995 478.6502 372.6495L476.36896 375.11826L480.6502 375.11826L480.6502 376.00888Z" fill-rule="nonzero"/><path fill="#34a853" d="M480.6502 376.00888L475.05646 376.00888L475.05646 375.22763L478.00958 371.94638Q478.66583 371.19638 478.91583 370.74326Q479.16583 370.2745 479.16583 369.7745Q479.16583 369.10263 478.75958 368.68076Q478.36896 368.24326 477.68146 368.24326Q476.88458 368.24326 476.43146 368.712Q475.97833 369.16513 475.97833 369.99326L474.9002 369.99326Q474.9002 368.80576 475.6502 368.087Q476.41583 367.35263 477.68146 367.35263Q478.88458 367.35263 479.57208 367.97763Q480.25958 368.60263 480.25958 369.6495Q480.25958 370.8995 478.6502 372.6495L476.36896 375.11826L480.6502 375.11826L480.6502 376.00888Z" fill-rule="nonzero"/><path stroke="#ffffff" stroke-width="3.0" stroke-linejoin="round" stroke-linecap="round" d="M475.55646 297.34097L475.99396 293.09097L480.36896 293.09097L480.36896 294.09097L476.91583 294.09097L476.6502 296.4191Q477.29083 296.0441 478.0877 296.0441Q479.24396 296.0441 479.93146 296.82535Q480.61896 297.59097 480.61896 298.90347Q480.61896 300.21597 479.9002 300.9816Q479.19708 301.74722 477.91583 301.74722Q476.79083 301.74722 476.07208 301.12222Q475.35333 300.4816 475.25958 299.37222L476.2752 299.37222Q476.38458 300.1066 476.80646 300.4816Q477.22833 300.8566 477.91583 300.8566Q478.66583 300.8566 479.10333 300.34097Q479.54083 299.82535 479.54083 298.9191Q479.54083 298.05972 479.07208 297.5441Q478.60333 297.02847 477.82208 297.02847Q477.11896 297.02847 476.7127 297.32535L476.43146 297.55972L475.55646 297.34097Z" fill-rule="nonzero"/><path fill="#ff6d01" d="M475.55646 297.34097L475.99396 293.09097L480.36896 293.09097L480.36896 294.09097L476.91583 294.09097L476.6502 296.4191Q477.29083 296.0441 478.0877 296.0441Q479.24396 296.0441 479.93146 296.82535Q480.61896 297.59097 480.61896 298.90347Q480.61896 300.21597 479.9002 300.9816Q479.19708 301.74722 477.91583 301.74722Q476.79083 301.74722 476.07208 301.12222Q475.35333 300.4816 475.25958 299.37222L476.2752 299.37222Q476.38458 300.1066 476.80646 300.4816Q477.22833 300.8566 477.91583 300.8566Q478.66583 300.8566 479.10333 300.34097Q479.54083 299.82535 479.54083 298.9191Q479.54083 298.05972 479.07208 297.5441Q478.60333 297.02847 477.82208 297.02847Q477.11896 297.02847 476.7127 297.32535L476.43146 297.55972L475.55646 297.34097Z" fill-rule="nonzero"/><path stroke="#ffffff" stroke-width="3.0" stroke-linejoin="round" stroke-linecap="round" d="M192.33237 346.41647L193.14487 346.41647Q193.92612 346.40085 194.36362 346.01022Q194.80112 345.6196 194.80112 344.94772Q194.80112 343.44772 193.30112 343.44772Q192.59799 343.44772 192.17612 343.85397Q191.76987 344.26022 191.76987 344.91647L190.67612 344.91647Q190.67612 343.90085 191.41049 343.22897Q192.16049 342.5571 193.30112 342.5571Q194.50424 342.5571 195.19174 343.19772Q195.87924 343.83835 195.87924 344.97897Q195.87924 345.54147 195.51987 346.0571Q195.16049 346.57272 194.53549 346.83835Q195.23862 347.0571 195.61362 347.57272Q196.00424 348.08835 196.00424 348.83835Q196.00424 349.97897 195.25424 350.66647Q194.50424 351.33835 193.30112 351.33835Q192.11362 351.33835 191.34799 350.6821Q190.59799 350.02585 190.59799 348.96335L191.69174 348.96335Q191.69174 349.63522 192.12924 350.04147Q192.56674 350.44772 193.31674 350.44772Q194.09799 350.44772 194.50424 350.04147Q194.92612 349.6196 194.92612 348.85397Q194.92612 348.1196 194.47299 347.72897Q194.01987 347.32272 193.14487 347.3071L192.33237 347.3071L192.33237 346.41647Z" fill-rule="nonzero"/><path fill="#46bdc6" d="M192.33237 346.41647L193.14487 346.41647Q193.92612 346.40085 194.36362 346.01022Q194.80112 345.6196 194.80112 344.94772Q194.80112 343.44772 193.30112 343.44772Q192.59799 343.44772 192.17612 343.85397Q191.76987 344.26022 191.76987 344.91647L190.67612 344.91647Q190.67612 343.90085 191.41049 343.22897Q192.16049 342.5571 193.30112 342.5571Q194.50424 342.5571 195.19174 343.19772Q195.87924 343.83835 195.87924 344.97897Q195.87924 345.54147 195.51987 346.0571Q195.16049 346.57272 194.53549 346.83835Q195.23862 347.0571 195.61362 347.57272Q196.00424 348.08835 196.00424 348.83835Q196.00424 349.97897 195.25424 350.66647Q194.50424 351.33835 193.30112 351.33835Q192.11362 351.33835 191.34799 350.6821Q190.59799 350.02585 190.59799 348.96335L191.69174 348.96335Q191.69174 349.63522 192.12924 350.04147Q192.56674 350.44772 193.31674 350.44772Q194.09799 350.44772 194.50424 350.04147Q194.92612 349.6196 194.92612 348.85397Q194.92612 348.1196 194.47299 347.72897Q194.01987 347.32272 193.14487 347.3071L192.33237 347.3071L192.33237 346.41647Z" fill-rule="nonzero"/><path stroke="#ffffff" stroke-width="3.0" stroke-linejoin="round" stroke-linecap="round" d="M476.63458 346.41647L477.44708 346.41647Q478.22833 346.40085 478.66583 346.01022Q479.10333 345.6196 479.10333 344.94772Q479.10333 343.44772 477.60333 343.44772Q476.9002 343.44772 476.47833 343.85397Q476.07208 344.26022 476.07208 344.91647L474.97833 344.91647Q474.97833 343.90085 475.7127 343.22897Q476.4627 342.5571 477.60333 342.5571Q478.80646 342.5571 479.49396 343.19772Q480.18146 343.83835 480.18146 344.97897Q480.18146 345.54147 479.82208 346.0571Q479.4627 346.57272 478.8377 346.83835Q479.54083 347.0571 479.91583 347.57272Q480.30646 348.08835 480.30646 348.83835Q480.30646 349.97897 479.55646 350.66647Q478.80646 351.33835 477.60333 351.33835Q476.41583 351.33835 475.6502 350.6821Q474.9002 350.02585 474.9002 348.96335L475.99396 348.96335Q475.99396 349.63522 476.43146 350.04147Q476.86896 350.44772 477.61896 350.44772Q478.4002 350.44772 478.80646 350.04147Q479.22833 349.6196 479.22833 348.85397Q479.22833 348.1196 478.7752 347.72897Q478.32208 347.32272 477.44708 347.3071L476.63458 347.3071L476.63458 346.41647Z" fill-rule="nonzero"/><path fill="#46bdc6" d="M476.63458 346.41647L477.44708 346.41647Q478.22833 346.40085 478.66583 346.01022Q479.10333 345.6196 479.10333 344.94772Q479.10333 343.44772 477.60333 343.44772Q476.9002 343.44772 476.47833 343.85397Q476.07208 344.26022 476.07208 344.91647L474.97833 344.91647Q474.97833 343.90085 475.7127 343.22897Q476.4627 342.5571 477.60333 342.5571Q478.80646 342.5571 479.49396 343.19772Q480.18146 343.83835 480.18146 344.97897Q480.18146 345.54147 479.82208 346.0571Q479.4627 346.57272 478.8377 346.83835Q479.54083 347.0571 479.91583 347.57272Q480.30646 348.08835 480.30646 348.83835Q480.30646 349.97897 479.55646 350.66647Q478.80646 351.33835 477.60333 351.33835Q476.41583 351.33835 475.6502 350.6821Q474.9002 350.02585 474.9002 348.96335L475.99396 348.96335Q475.99396 349.63522 476.43146 350.04147Q476.86896 350.44772 477.61896 350.44772Q478.4002 350.44772 478.80646 350.04147Q479.22833 349.6196 479.22833 348.85397Q479.22833 348.1196 478.7752 347.72897Q478.32208 347.32272 477.44708 347.3071L476.63458 347.3071L476.63458 346.41647Z" fill-rule="nonzero"/><path stroke="#ffffff" stroke-width="3.0" stroke-linejoin="round" stroke-linecap="round" d="M195.94174 220.92305Q195.94174 221.56367 195.59799 222.06367Q195.25424 222.56367 194.69174 222.84492Q195.34799 223.12617 195.73862 223.68867Q196.12924 224.23555 196.12924 224.93867Q196.12924 226.03242 195.37924 226.7043Q194.64487 227.36055 193.42612 227.36055Q192.19174 227.36055 191.44174 226.7043Q190.70737 226.03242 190.70737 224.93867Q190.70737 224.23555 191.08237 223.68867Q191.45737 223.12617 192.12924 222.84492Q191.56674 222.56367 191.23862 222.06367Q190.91049 221.56367 190.91049 220.92305Q190.91049 219.84492 191.59799 219.21992Q192.28549 218.5793 193.42612 218.5793Q194.55112 218.5793 195.23862 219.21992Q195.94174 219.84492 195.94174 220.92305ZM195.05112 224.90742Q195.05112 224.18867 194.59799 223.75117Q194.14487 223.29805 193.41049 223.29805Q192.67612 223.29805 192.22299 223.75117Q191.78549 224.18867 191.78549 224.92305Q191.78549 225.6418 192.22299 226.06367Q192.66049 226.46992 193.42612 226.46992Q194.17612 226.46992 194.61362 226.04805Q195.05112 225.62617 195.05112 224.90742ZM193.42612 219.46992Q192.78549 219.46992 192.37924 219.87617Q191.98862 220.2668 191.98862 220.9543Q191.98862 221.59492 192.37924 222.00117Q192.76987 222.40742 193.41049 222.40742Q194.06674 222.40742 194.45737 222.00117Q194.84799 221.59492 194.84799 220.9543Q194.84799 220.29805 194.44174 219.8918Q194.03549 219.46992 193.42612 219.46992Z" fill-rule="nonzero"/><path fill="#7baaf7" d="M195.94174 220.92305Q195.94174 221.56367 195.59799 222.06367Q195.25424 222.56367 194.69174 222.84492Q195.34799 223.12617 195.73862 223.68867Q196.12924 224.23555 196.12924 224.93867Q196.12924 226.03242 195.37924 226.7043Q194.64487 227.36055 193.42612 227.36055Q192.19174 227.36055 191.44174 226.7043Q190.70737 226.03242 190.70737 224.93867Q190.70737 224.23555 191.08237 223.68867Q191.45737 223.12617 192.12924 222.84492Q191.56674 222.56367 191.23862 222.06367Q190.91049 221.56367 190.91049 220.92305Q190.91049 219.84492 191.59799 219.21992Q192.28549 218.5793 193.42612 218.5793Q194.55112 218.5793 195.23862 219.21992Q195.94174 219.84492 195.94174 220.92305ZM195.05112 224.90742Q195.05112 224.18867 194.59799 223.75117Q194.14487 223.29805 193.41049 223.29805Q192.67612 223.29805 192.22299 223.75117Q191.78549 224.18867 191.78549 224.92305Q191.78549 225.6418 192.22299 226.06367Q192.66049 226.46992 193.42612 226.46992Q194.17612 226.46992 194.61362 226.04805Q195.05112 225.62617 195.05112 224.90742ZM193.42612 219.46992Q192.78549 219.46992 192.37924 219.87617Q191.98862 220.2668 191.98862 220.9543Q191.98862 221.59492 192.37924 222.00117Q192.76987 222.40742 193.41049 222.40742Q194.06674 222.40742 194.45737 222.00117Q194.84799 221.59492 194.84799 220.9543Q194.84799 220.29805 194.44174 219.8918Q194.03549 219.46992 193.42612 219.46992Z" fill-rule="nonzero"/><path stroke="#ffffff" stroke-width="3.0" stroke-linejoin="round" stroke-linecap="round" d="M479.63458 323.5584L480.82208 323.5584L480.82208 324.4334L479.63458 324.4334L479.63458 326.4178L478.55646 326.4178L478.55646 324.4334L474.66583 324.4334L474.66583 323.7928L478.47833 317.88654L479.63458 317.88654L479.63458 323.5584ZM475.9002 323.5584L478.55646 323.5584L478.55646 319.3709L478.41583 319.6053L475.9002 323.5584Z" fill-rule="nonzero"/><path fill="#7baaf7" d="M479.63458 323.5584L480.82208 323.5584L480.82208 324.4334L479.63458 324.4334L479.63458 326.4178L478.55646 326.4178L478.55646 324.4334L474.66583 324.4334L474.66583 323.7928L478.47833 317.88654L479.63458 317.88654L479.63458 323.5584ZM475.9002 323.5584L478.55646 323.5584L478.55646 319.3709L478.41583 319.6053L475.9002 323.5584Z" fill-rule="nonzero"/><path fill="#000000" d="M38.9 443.36563Q38.9 441.83438 39.2125 440.9125Q39.525 439.975 40.134377 439.475Q40.759377 438.975 41.696877 438.975Q42.384377 438.975 42.9 439.25626Q43.43125 439.5375 43.775 440.06876Q44.11875 440.58438 44.30625 441.33438Q44.49375 442.08438 44.49375 443.36563Q44.49375 444.88126 44.18125 445.80313Q43.884377 446.725 43.259377 447.24063Q42.65 447.74063 41.696877 447.74063Q40.4625 447.74063 39.74375 446.85Q38.9 445.7875 38.9 443.36563ZM39.978127 443.36563Q39.978127 445.475 40.478127 446.17813Q40.978127 446.88126 41.696877 446.88126Q42.43125 446.88126 42.915627 446.17813Q43.415627 445.475 43.415627 443.36563Q43.415627 441.24063 42.915627 440.55313Q42.43125 439.85 41.68125 439.85Q40.9625 439.85 40.525 440.45938Q39.978127 441.24063 39.978127 443.36563Z" fill-rule="nonzero"/><path fill="#000000" d="M38.9 321.37222L40.009377 321.27847Q40.134377 322.09097 40.571877 322.49722Q41.025 322.90347 41.665627 322.90347Q42.415627 322.90347 42.946877 322.32535Q43.478127 321.74722 43.478127 320.80972Q43.478127 319.90347 42.9625 319.38785Q42.4625 318.8566 41.634377 318.8566Q41.134377 318.8566 40.7125 319.09097Q40.30625 319.32535 40.071877 319.68472L39.0875 319.55972L39.915627 315.15347L44.196877 315.15347L44.196877 316.15347L40.759377 316.15347L40.30625 318.46597Q41.071877 317.9191 41.915627 317.9191Q43.040627 317.9191 43.80625 318.70035Q44.5875 319.4816 44.5875 320.71597Q44.5875 321.87222 43.915627 322.7316Q43.0875 323.76285 41.665627 323.76285Q40.49375 323.76285 39.74375 323.1066Q39.009377 322.45035 38.9 321.37222Z" fill-rule="nonzero"/><path fill="#000000" d="M35.86875 199.64444L34.821877 199.64444L34.821877 192.92569Q34.43125 193.28506 33.80625 193.66006Q33.196877 194.01944 32.7125 194.19131L32.7125 193.17569Q33.5875 192.75381 34.24375 192.17569Q34.915627 191.58194 35.196877 191.01944L35.86875 191.01944L35.86875 199.64444ZM38.9 195.41006Q38.9 193.87881 39.2125 192.95694Q39.525 192.01944 40.134377 191.51944Q40.759377 191.01944 41.696877 191.01944Q42.384377 191.01944 42.9 191.30069Q43.43125 191.58194 43.775 192.11319Q44.11875 192.62881 44.30625 193.37881Q44.49375 194.12881 44.49375 195.41006Q44.49375 196.92569 44.18125 197.84756Q43.884377 198.76944 43.259377 199.28506Q42.65 199.78506 41.696877 199.78506Q40.4625 199.78506 39.74375 198.89444Q38.9 197.83194 38.9 195.41006ZM39.978127 195.41006Q39.978127 197.51944 40.478127 198.22256Q40.978127 198.92569 41.696877 198.92569Q42.43125 198.92569 42.915627 198.22256Q43.415627 197.51944 43.415627 195.41006Q43.415627 193.28506 42.915627 192.59756Q42.43125 191.89444 41.68125 191.89444Q40.9625 191.89444 40.525 192.50381Q39.978127 193.28506 39.978127 195.41006Z" fill-rule="nonzero"/><path fill="#000000" d="M35.86875 75.666664L34.821877 75.666664L34.821877 68.947914Q34.43125 69.30729 33.80625 69.68229Q33.196877 70.041664 32.7125 70.21354L32.7125 69.197914Q33.5875 68.77604 34.24375 68.197914Q34.915627 67.604164 35.196877 67.041664L35.86875 67.041664L35.86875 75.666664ZM38.9 73.416664L40.009377 73.322914Q40.134377 74.135414 40.571877 74.541664Q41.025 74.947914 41.665627 74.947914Q42.415627 74.947914 42.946877 74.36979Q43.478127 73.791664 43.478127 72.854164Q43.478127 71.947914 42.9625 71.43229Q42.4625 70.90104 41.634377 70.90104Q41.134377 70.90104 40.7125 71.135414Q40.30625 71.36979 40.071877 71.729164L39.0875 71.604164L39.915627 67.197914L44.196877 67.197914L44.196877 68.197914L40.759377 68.197914L40.30625 70.510414Q41.071877 69.96354 41.915627 69.96354Q43.040627 69.96354 43.80625 70.74479Q44.5875 71.52604 44.5875 72.760414Q44.5875 73.916664 43.915627 74.77604Q43.0875 75.80729 41.665627 75.80729Q40.49375 75.80729 39.74375 75.15104Q39.009377 74.49479 38.9 73.416664Z" fill-rule="nonzero"/><path fill="#000000" d="M192.37924 455.44376L192.37924 456.475L182.48862 456.475L182.48862 455.44376L192.37924 455.44376ZM202.03549 457.88126L197.58237 457.88126Q197.58237 459.89688 195.51987 461.67813L194.72299 460.7875Q196.64487 459.56876 196.64487 457.13126L196.64487 451.4125L202.97299 451.4125L202.97299 460.64688Q202.97299 461.39688 202.17612 461.39688L201.05112 461.39688L200.86362 460.36563L201.84799 460.36563Q202.03549 460.36563 202.03549 460.17813L202.03549 457.88126ZM197.58237 456.85L202.03549 456.85L202.03549 455.1625L197.58237 455.1625L197.58237 456.85ZM197.58237 454.13126L202.03549 454.13126L202.03549 452.44376L197.58237 452.44376L197.58237 454.13126Z" fill-rule="nonzero"/><path fill="#000000" d="M475.69708 452.5375L475.69708 453.56876L468.00958 453.56876L468.00958 452.5375L475.69708 452.5375ZM476.86896 458.9125L476.86896 459.94376L466.74396 459.94376L466.74396 458.9125L476.86896 458.9125ZM486.3377 457.88126L481.88458 457.88126Q481.88458 459.89688 479.82208 461.67813L479.0252 460.7875Q480.94708 459.56876 480.94708 457.13126L480.94708 451.4125L487.2752 451.4125L487.2752 460.64688Q487.2752 461.39688 486.47833 461.39688L485.35333 461.39688L485.16583 460.36563L486.1502 460.36563Q486.3377 460.36563 486.3377 460.17813L486.3377 457.88126ZM481.88458 456.85L486.3377 456.85L486.3377 455.1625L481.88458 455.1625L481.88458 456.85ZM481.88458 454.13126L486.3377 454.13126L486.3377 452.44376L481.88458 452.44376L481.88458 454.13126Z" fill-rule="nonzero"/><path stroke="#4285f4" stroke-width="4.0" stroke-linecap="butt" d="M646.6 71.666664L658.6 71.666664" fill-rule="nonzero"/><path fill="#1a1a1a" d="M672.64685 73.885414Q671.6156 76.18229 667.9125 76.83854L667.5375 75.80729Q671.2875 75.24479 671.85 73.322914L667.4906 73.322914L667.4906 72.43229L669.1312 72.43229L669.1312 69.90104L672.08435 69.90104L672.08435 68.541664L672.975 68.541664Q673.35 68.58854 673.02185 68.822914L673.02185 69.90104L675.975 69.90104L675.975 72.43229L677.6156 72.43229L677.6156 73.322914L673.2562 73.322914Q674.475 75.291664 677.7562 75.760414L677.4281 76.791664Q674.33435 76.36979 672.64685 73.885414ZM674.9906 67.135414L677.4281 67.135414L677.4281 68.02604L674.9906 68.02604L674.9906 69.15104L674.0531 69.15104L674.0531 68.02604L671.1 68.02604L671.1 69.15104L670.1625 69.15104L670.1625 68.02604L667.6312 68.02604L667.6312 67.135414L670.1625 67.135414L670.1625 65.916664L671.0531 65.916664Q671.4281 65.96354 671.1 66.197914L671.1 67.135414L674.0531 67.135414L674.0531 65.916664L674.89685 65.916664Q675.3187 65.96354 674.9906 66.197914L674.9906 67.135414ZM673.02185 70.791664L672.975 72.43229L675.0375 72.43229L675.0375 70.791664L673.02185 70.791664ZM672.0375 72.43229L672.08435 70.791664L670.0687 70.791664L670.0687 72.43229L672.0375 72.43229Z" fill-rule="nonzero"/><path fill="#1a1a1a" d="M688.1625 66.197914Q688.9125 66.197914 689.6156 66.15104L689.6156 66.90104Q688.9125 66.854164 686.33435 66.854164L686.1 68.21354L689.0062 68.21354L688.725 70.791664Q689.4281 70.791664 690.1312 70.74479L690.1312 71.541664Q689.52185 71.49479 689.1 71.49479L684.225 71.49479Q683.3812 71.49479 682.4906 71.541664L682.4906 70.74479Q683.14685 70.791664 684.6 70.791664L684.975 68.86979Q684.0375 68.86979 683.1937 68.96354L683.1937 68.11979Q684.1781 68.166664 685.20935 68.166664L685.39685 66.854164Q683.70935 66.854164 682.8187 66.90104L682.8187 66.15104Q683.6625 66.197914 684.6 66.197914L688.1625 66.197914ZM689.1 72.572914Q689.0531 73.135414 689.0531 73.93229L689.0531 75.52604Q689.0531 76.229164 689.1 76.83854L688.1625 76.83854L688.1625 76.135414L684.6 76.135414L684.6 76.885414L683.6625 76.885414Q683.70935 76.27604 683.70935 75.61979L683.70935 74.166664Q683.70935 73.135414 683.6625 72.572914L689.1 72.572914ZM682.4437 73.041664Q682.6781 73.416664 683.0531 73.93229Q682.4437 74.541664 681.9906 75.08854Q681.5531 75.61979 680.9906 76.46354Q680.6625 76.08854 680.14685 75.71354Q680.4281 75.43229 680.58435 75.197914Q680.7562 74.96354 680.7562 74.447914L680.7562 70.27604L680.33435 70.27604Q679.725 70.27604 679.02185 70.322914L679.02185 69.43229Q679.6781 69.479164 680.33435 69.479164L681.6937 69.479164Q681.64685 70.416664 681.64685 71.40104L681.64685 74.11979Q682.1625 73.510414 682.4437 73.041664ZM688.1625 75.385414L688.1625 73.36979L684.6 73.36979L684.6 75.385414L688.1625 75.385414ZM687.6937 70.791664L687.975 68.916664L685.9125 68.916664L685.5375 70.791664L687.6937 70.791664ZM681.27185 68.21354Q680.475 67.08854 679.95935 66.61979Q680.2406 66.291664 680.6156 66.010414Q681.0375 66.479164 681.975 67.604164Q681.6 67.885414 681.27185 68.21354ZM698.70935 68.11979Q698.33435 68.541664 697.6781 69.666664L699.08435 69.666664Q699.0375 70.27604 699.0375 70.979164Q699.0375 71.635414 699.08435 72.24479L697.725 72.24479L697.725 73.979164Q697.725 74.635414 697.83435 74.71354Q697.95935 74.77604 698.2562 74.760414Q698.5687 74.729164 698.70935 74.49479Q698.85 74.260414 698.9906 73.697914Q699.4125 73.979164 699.8812 74.072914Q699.5531 75.15104 699.1312 75.291664Q698.70935 75.43229 697.95935 75.43229Q697.20935 75.43229 697.0375 75.229164Q696.8812 75.010414 696.8812 74.635414L696.8812 72.24479L696.08435 72.24479Q695.9437 73.979164 695.4906 74.760414Q695.0531 75.52604 694.0687 76.135414Q693.7875 75.61979 693.4125 75.43229Q694.4906 74.96354 694.8812 74.05729Q695.2875 73.135414 695.2875 72.24479L694.1156 72.24479Q694.20935 71.58854 694.20935 70.93229Q694.20935 70.229164 694.1156 69.666664L696.9281 69.666664Q697.20935 69.104164 697.8187 67.65104Q698.0531 67.791664 698.70935 68.11979ZM701.5687 66.71354Q701.475 67.604164 701.475 68.68229L701.475 74.916664Q701.475 76.322914 700.8187 76.479164Q700.1625 76.65104 699.4125 76.74479Q699.4125 76.135414 699.1781 75.71354Q700.0687 75.71354 700.35 75.572914Q700.6312 75.43229 700.6312 74.86979L700.6312 67.416664L697.35 67.416664Q696.5062 67.416664 695.6156 67.46354L695.6156 66.666664Q696.5531 66.71354 697.2562 66.71354L701.5687 66.71354ZM692.7562 76.604164L691.8187 76.604164Q691.8656 75.43229 691.8656 74.354164L691.8656 70.041664Q691.8656 69.010414 691.8187 68.072914L692.7562 68.072914L692.7562 76.604164ZM698.1937 71.541664L698.1937 70.322914L695.0062 70.322914L695.0062 71.541664L698.1937 71.541664ZM693.8812 67.697914Q693.3187 66.854164 692.7562 66.291664L693.4125 65.822914Q693.9281 66.291664 694.5375 67.135414Q694.39685 67.27604 693.8812 67.697914ZM695.33435 69.43229Q695.0531 68.729164 694.5375 68.11979Q695.0062 67.791664 695.1937 67.697914L696.0375 69.010414Q695.6156 69.197914 695.33435 69.43229ZM706.8187 68.916664Q707.8031 68.96354 709.8656 68.96354L709.8656 67.979164Q708.1781 67.979164 707.1937 68.02604L707.1937 67.229164Q707.8031 67.27604 709.8656 67.27604Q709.8656 66.61979 709.8187 66.010414L710.7562 66.010414Q710.70935 66.760414 710.70935 67.27604Q712.6781 67.27604 713.52185 67.229164L713.52185 68.02604Q712.77185 67.979164 710.70935 67.979164L710.70935 68.96354L713.89685 68.96354Q713.2406 70.55729 713.0062 71.166664Q712.6781 71.02604 712.20935 70.83854Q712.5375 70.041664 712.6781 69.666664L708.7875 69.666664Q707.8031 69.666664 706.8187 69.71354L706.8187 68.916664ZM710.8031 73.93229Q710.4281 74.86979 709.8187 75.43229Q709.20935 75.99479 708.52185 76.33854Q707.85 76.697914 707.33435 76.885414Q707.0531 76.510414 706.725 76.135414Q707.9437 75.90104 708.8031 75.24479Q709.6781 74.58854 709.9125 73.93229L708.7406 73.93229Q707.85 73.93229 706.8656 73.979164L706.8656 73.135414Q707.70935 73.18229 708.7406 73.18229L710.14685 73.18229Q710.2406 72.43229 710.3031 71.572914Q710.3812 70.697914 710.3812 70.041664Q710.8031 70.18229 711.3656 70.229164Q711.225 70.74479 711.14685 71.541664Q711.08435 72.33854 710.9437 73.18229L712.0687 73.18229Q712.9125 73.18229 713.9906 73.135414L713.9906 73.979164Q713.1 73.93229 712.1156 73.93229L710.8031 73.93229ZM705.6 69.52604Q705.5531 70.322914 705.5531 71.260414L705.5531 74.354164Q705.9281 73.93229 706.35 73.416664Q706.4906 73.791664 706.8187 74.21354Q706.1625 74.86979 705.6937 75.385414Q705.225 75.90104 704.89685 76.322914Q704.6625 75.947914 704.1937 75.61979Q704.6156 75.291664 704.70935 74.86979L704.70935 70.27604Q704.14685 70.27604 703.20935 70.322914L703.20935 69.479164Q704.0531 69.52604 704.7562 69.52604L705.6 69.52604ZM711.3187 74.40104Q713.0531 75.52604 713.8031 76.08854Q713.475 76.416664 713.1937 76.83854Q712.35 76.041664 710.85 75.15104Q711.1781 74.729164 711.3187 74.40104ZM704.5687 66.197914Q705.3656 67.041664 705.9281 67.83854Q705.5531 68.072914 705.1781 68.40104Q704.5687 67.416664 703.8656 66.760414Q704.2875 66.479164 704.5687 66.197914ZM708.08435 69.854164Q709.3031 70.65104 709.9125 71.02604Q709.6781 71.354164 709.39685 71.77604Q708.45935 70.979164 707.6625 70.55729Q707.89685 70.18229 708.08435 69.854164ZM707.2406 71.21354Q708.3187 71.822914 709.0687 72.291664Q708.83435 72.61979 708.5531 73.041664Q707.3812 72.197914 706.8187 71.916664Q707.0531 71.58854 707.2406 71.21354Z" fill-rule="nonzero"/><path fill="#1a1a1a" d="M723.9437 71.916664L718.2562 74.33854L718.2562 73.291664L722.7562 71.416664L718.2562 69.572914L718.2562 68.52604L723.9437 70.93229L723.9437 71.916664ZM732.0687 75.666664L731.02185 75.666664L731.02185 68.947914Q730.6312 69.30729 730.0062 69.68229Q729.39685 70.041664 728.9125 70.21354L728.9125 69.197914Q729.7875 68.77604 730.4437 68.197914Q731.1156 67.604164 731.39685 67.041664L732.0687 67.041664L732.0687 75.666664ZM735.39685 75.666664L735.39685 67.072914L736.4437 67.072914L736.4437 70.15104Q737.1781 69.30729 738.3031 69.30729Q739.0062 69.30729 739.5062 69.58854Q740.02185 69.854164 740.2406 70.33854Q740.45935 70.80729 740.45935 71.729164L740.45935 75.666664L739.4125 75.666664L739.4125 71.729164Q739.4125 70.93229 739.0687 70.572914Q738.725 70.21354 738.1 70.21354Q737.6312 70.21354 737.20935 70.46354Q736.8031 70.697914 736.6156 71.11979Q736.4437 71.52604 736.4437 72.260414L736.4437 75.666664L735.39685 75.666664Z" fill-rule="nonzero"/><path stroke="#ea4335" stroke-width="4.0" stroke-linecap="butt" d="M646.6 95.666664L658.6 95.666664" fill-rule="nonzero"/><path fill="#1a1a1a" d="M667.475 99.666664L667.475 91.072914L668.6156 91.072914L668.6156 98.65104L672.85 98.65104L672.85 99.666664L667.475 99.666664ZM678.64685 97.666664L679.7406 97.791664Q679.4906 98.74479 678.7875 99.27604Q678.08435 99.80729 677.0062 99.80729Q675.64685 99.80729 674.83435 98.96354Q674.0375 98.11979 674.0375 96.604164Q674.0375 95.041664 674.85 94.18229Q675.6625 93.30729 676.9437 93.30729Q678.1937 93.30729 678.975 94.15104Q679.77185 94.99479 679.77185 96.541664Q679.77185 96.635414 679.77185 96.822914L675.1312 96.822914Q675.1937 97.854164 675.70935 98.40104Q676.225 98.93229 677.0062 98.93229Q677.58435 98.93229 677.9906 98.635414Q678.4125 98.322914 678.64685 97.666664ZM675.1937 95.96354L678.6625 95.96354Q678.6 95.166664 678.27185 94.77604Q677.7562 94.166664 676.95935 94.166664Q676.225 94.166664 675.725 94.65104Q675.2406 95.135414 675.1937 95.96354ZM685.64685 97.666664L686.7406 97.791664Q686.4906 98.74479 685.7875 99.27604Q685.08435 99.80729 684.0062 99.80729Q682.64685 99.80729 681.83435 98.96354Q681.0375 98.11979 681.0375 96.604164Q681.0375 95.041664 681.85 94.18229Q682.6625 93.30729 683.9437 93.30729Q685.1937 93.30729 685.975 94.15104Q686.77185 94.99479 686.77185 96.541664Q686.77185 96.635414 686.77185 96.822914L682.1312 96.822914Q682.1937 97.854164 682.70935 98.40104Q683.225 98.93229 684.0062 98.93229Q684.58435 98.93229 684.9906 98.635414Q685.4125 98.322914 685.64685 97.666664ZM682.1937 95.96354L685.6625 95.96354Q685.6 95.166664 685.27185 94.77604Q684.7562 94.166664 683.95935 94.166664Q683.225 94.166664 682.725 94.65104Q682.2406 95.135414 682.1937 95.96354ZM690.6937 98.729164L690.85 99.65104Q690.39685 99.74479 690.0531 99.74479Q689.475 99.74479 689.1625 99.572914Q688.85 99.385414 688.70935 99.08854Q688.58435 98.791664 688.58435 97.83854L688.58435 94.260414L687.8187 94.260414L687.8187 93.447914L688.58435 93.447914L688.58435 91.90104L689.6312 91.27604L689.6312 93.447914L690.6937 93.447914L690.6937 94.260414L689.6312 94.260414L689.6312 97.90104Q689.6312 98.354164 689.6781 98.479164Q689.7406 98.604164 689.8656 98.68229Q689.9906 98.760414 690.225 98.760414Q690.4125 98.760414 690.6937 98.729164ZM697.6625 96.65104L698.7875 96.947914Q698.4281 98.33854 697.5062 99.072914Q696.58435 99.80729 695.2406 99.80729Q693.85 99.80729 692.975 99.24479Q692.1 98.68229 691.64685 97.61979Q691.1937 96.541664 691.1937 95.30729Q691.1937 93.96354 691.70935 92.96354Q692.225 91.96354 693.1625 91.447914Q694.1156 90.93229 695.2562 90.93229Q696.5375 90.93229 697.4125 91.58854Q698.3031 92.24479 698.64685 93.43229L697.52185 93.697914Q697.225 92.760414 696.64685 92.33854Q696.08435 91.90104 695.225 91.90104Q694.2406 91.90104 693.5687 92.385414Q692.9125 92.854164 692.6312 93.65104Q692.3656 94.447914 692.3656 95.30729Q692.3656 96.40104 692.6781 97.21354Q693.0062 98.02604 693.6781 98.43229Q694.35 98.83854 695.14685 98.83854Q696.1 98.83854 696.7562 98.291664Q697.4281 97.74479 697.6625 96.65104ZM700.0062 96.55729Q700.0062 94.822914 700.95935 93.99479Q701.7562 93.30729 702.9125 93.30729Q704.1937 93.30729 705.0062 94.15104Q705.83435 94.979164 705.83435 96.46354Q705.83435 97.666664 705.475 98.354164Q705.1156 99.041664 704.4125 99.43229Q703.725 99.80729 702.9125 99.80729Q701.6156 99.80729 700.8031 98.979164Q700.0062 98.135414 700.0062 96.55729ZM701.08435 96.55729Q701.08435 97.74479 701.6 98.33854Q702.1312 98.93229 702.9125 98.93229Q703.70935 98.93229 704.225 98.33854Q704.7406 97.74479 704.7406 96.52604Q704.7406 95.36979 704.20935 94.77604Q703.6937 94.18229 702.9125 94.18229Q702.1312 94.18229 701.6 94.77604Q701.08435 95.354164 701.08435 96.55729ZM711.4281 99.666664L711.4281 98.885414Q710.83435 99.80729 709.6937 99.80729Q708.9437 99.80729 708.3187 99.40104Q707.6937 98.979164 707.35 98.24479Q707.0062 97.510414 707.0062 96.55729Q707.0062 95.635414 707.3187 94.86979Q707.6312 94.104164 708.2562 93.71354Q708.8812 93.30729 709.64685 93.30729Q710.20935 93.30729 710.64685 93.541664Q711.08435 93.77604 711.3656 94.15104L711.3656 91.072914L712.4125 91.072914L712.4125 99.666664L711.4281 99.666664ZM708.1 96.55729Q708.1 97.760414 708.6 98.354164Q709.1 98.93229 709.7875 98.93229Q710.475 98.93229 710.95935 98.36979Q711.4437 97.80729 711.4437 96.65104Q711.4437 95.36979 710.9437 94.77604Q710.45935 94.18229 709.7406 94.18229Q709.0375 94.18229 708.5687 94.760414Q708.1 95.322914 708.1 96.55729ZM718.64685 97.666664L719.7406 97.791664Q719.4906 98.74479 718.7875 99.27604Q718.08435 99.80729 717.0062 99.80729Q715.64685 99.80729 714.83435 98.96354Q714.0375 98.11979 714.0375 96.604164Q714.0375 95.041664 714.85 94.18229Q715.6625 93.30729 716.9437 93.30729Q718.1937 93.30729 718.975 94.15104Q719.77185 94.99479 719.77185 96.541664Q719.77185 96.635414 719.77185 96.822914L715.1312 96.822914Q715.1937 97.854164 715.70935 98.40104Q716.225 98.93229 717.0062 98.93229Q717.58435 98.93229 717.9906 98.635414Q718.4125 98.322914 718.64685 97.666664ZM715.1937 95.96354L718.6625 95.96354Q718.6 95.166664 718.27185 94.77604Q717.7562 94.166664 716.95935 94.166664Q716.225 94.166664 715.725 94.65104Q715.2406 95.135414 715.1937 95.96354ZM729.9437 95.916664L724.2562 98.33854L724.2562 97.291664L728.7562 95.416664L724.2562 93.572914L724.2562 92.52604L729.9437 94.93229L729.9437 95.916664ZM738.0687 99.666664L737.02185 99.666664L737.02185 92.947914Q736.6312 93.30729 736.0062 93.68229Q735.39685 94.041664 734.9125 94.21354L734.9125 93.197914Q735.7875 92.77604 736.4437 92.197914Q737.1156 91.604164 737.39685 91.041664L738.0687 91.041664L738.0687 99.666664ZM741.39685 99.666664L741.39685 91.072914L742.4437 91.072914L742.4437 94.15104Q743.1781 93.30729 744.3031 93.30729Q745.0062 93.30729 745.5062 93.58854Q746.02185 93.854164 746.2406 94.33854Q746.45935 94.80729 746.45935 95.729164L746.45935 99.666664L745.4125 99.666664L745.4125 95.729164Q745.4125 94.93229 745.0687 94.572914Q744.725 94.21354 744.1 94.21354Q743.6312 94.21354 743.20935 94.46354Q742.8031 94.697914 742.6156 95.11979Q742.4437 95.52604 742.4437 96.260414L742.4437 99.666664L741.39685 99.666664Z" fill-rule="nonzero"/><path stroke="#fbbc04" stroke-width="4.0" stroke-linecap="butt" d="M646.6 119.666664L658.6 119.666664" fill-rule="nonzero"/><path fill="#1a1a1a" d="M675.64685 117.99479L675.64685 116.447914L669.7406 116.447914L669.7406 117.99479L675.64685 117.99479ZM675.64685 118.885414L669.7406 118.885414L669.7406 120.479164L675.64685 120.479164L675.64685 118.885414ZM675.64685 123.104164L675.64685 121.36979L669.7406 121.36979L669.7406 123.104164L675.64685 123.104164ZM671.70935 115.55729L672.1312 113.916664L673.2562 114.15104Q673.4437 114.33854 673.1156 114.385414L672.6 115.55729L676.58435 115.55729L676.58435 124.416664L675.64685 124.416664L675.64685 123.99479L669.7406 123.99479L669.7406 124.55729L668.8031 124.55729L668.8031 115.55729L671.70935 115.55729ZM687.3656 115.979164L689.6625 115.979164L689.6625 118.55729L688.725 118.55729L688.725 116.86979L680.475 116.86979L680.475 118.697914L679.5375 118.697914L679.5375 115.979164L686.33435 115.979164L687.3187 113.916664L688.3031 114.385414Q688.4906 114.61979 688.1625 114.666664L687.3656 115.979164ZM684.5062 113.96354Q685.20935 114.854164 685.4437 115.416664L684.45935 115.93229Q684.08435 115.08854 683.6156 114.479164L684.5062 113.96354ZM684.1781 119.354164L684.975 119.40104L686.33435 118.604164L681.3656 118.604164L681.3656 117.854164L687.1312 117.854164L687.27185 117.71354L688.0687 118.46354Q688.20935 118.65104 687.83435 118.65104Q686.4281 119.541664 685.1156 120.104164L685.1156 120.572914L689.9906 120.572914L689.9906 121.46354L685.1156 121.46354L685.1156 123.854164Q685.1156 124.604164 684.3656 124.604164L683.1 124.604164L682.9125 123.572914L683.9906 123.572914Q684.1781 123.572914 684.1781 123.385414L684.1781 121.46354L679.3031 121.46354L679.3031 120.572914L684.1781 120.572914L684.1781 119.354164ZM681.7406 115.93229Q681.3187 115.08854 680.89685 114.61979L681.7875 114.104164Q682.3031 114.666664 682.725 115.416664L681.7406 115.93229Z" fill-rule="nonzero"/><path fill="#1a1a1a" d="M699.9437 119.916664L694.2562 122.33854L694.2562 121.291664L698.7562 119.416664L694.2562 117.572914L694.2562 116.52604L699.9437 118.93229L699.9437 119.916664ZM708.0687 123.666664L707.02185 123.666664L707.02185 116.947914Q706.6312 117.30729 706.0062 117.68229Q705.39685 118.041664 704.9125 118.21354L704.9125 117.197914Q705.7875 116.77604 706.4437 116.197914Q707.1156 115.604164 707.39685 115.041664L708.0687 115.041664L708.0687 123.666664ZM711.39685 123.666664L711.39685 115.072914L712.4437 115.072914L712.4437 118.15104Q713.1781 117.30729 714.3031 117.30729Q715.0062 117.30729 715.5062 117.58854Q716.02185 117.854164 716.2406 118.33854Q716.45935 118.80729 716.45935 119.729164L716.45935 123.666664L715.4125 123.666664L715.4125 119.729164Q715.4125 118.93229 715.0687 118.572914Q714.725 118.21354 714.1 118.21354Q713.6312 118.21354 713.20935 118.46354Q712.8031 118.697914 712.6156 119.11979Q712.4437 119.52604 712.4437 120.260414L712.4437 123.666664L711.39685 123.666664Z" fill-rule="nonzero"/><path stroke="#34a853" stroke-width="4.0" stroke-linecap="butt" d="M646.6 143.66667L658.6 143.66667" fill-rule="nonzero"/><path fill="#1a1a1a" d="M670.8187 140.91667Q671.8031 140.96355 673.8656 140.96355L673.8656 139.97917Q672.1781 139.97917 671.1937 140.02605L671.1937 139.22917Q671.8031 139.27605 673.8656 139.27605Q673.8656 138.6198 673.8187 138.01042L674.7562 138.01042Q674.70935 138.76042 674.70935 139.27605Q676.6781 139.27605 677.52185 139.22917L677.52185 140.02605Q676.77185 139.97917 674.70935 139.97917L674.70935 140.96355L677.89685 140.96355Q677.2406 142.5573 677.0062 143.16667Q676.6781 143.02605 676.20935 142.83855Q676.5375 142.04167 676.6781 141.66667L672.7875 141.66667Q671.8031 141.66667 670.8187 141.71355L670.8187 140.91667ZM674.8031 145.9323Q674.4281 146.8698 673.8187 147.4323Q673.20935 147.9948 672.52185 148.33855Q671.85 148.69792 671.33435 148.88542Q671.0531 148.51042 670.725 148.13542Q671.9437 147.90105 672.8031 147.2448Q673.6781 146.58855 673.9125 145.9323L672.7406 145.9323Q671.85 145.9323 670.8656 145.97917L670.8656 145.13542Q671.70935 145.1823 672.7406 145.1823L674.14685 145.1823Q674.2406 144.4323 674.3031 143.57292Q674.3812 142.69792 674.3812 142.04167Q674.8031 142.1823 675.3656 142.22917Q675.225 142.7448 675.14685 143.54167Q675.08435 144.33855 674.9437 145.1823L676.0687 145.1823Q676.9125 145.1823 677.9906 145.13542L677.9906 145.97917Q677.1 145.9323 676.1156 145.9323L674.8031 145.9323ZM669.6 141.52605Q669.5531 142.32292 669.5531 143.26042L669.5531 146.35417Q669.9281 145.9323 670.35 145.41667Q670.4906 145.79167 670.8187 146.21355Q670.1625 146.8698 669.6937 147.38542Q669.225 147.90105 668.89685 148.32292Q668.6625 147.94792 668.1937 147.6198Q668.6156 147.29167 668.70935 146.8698L668.70935 142.27605Q668.14685 142.27605 667.20935 142.32292L667.20935 141.47917Q668.0531 141.52605 668.7562 141.52605L669.6 141.52605ZM675.3187 146.40105Q677.0531 147.52605 677.8031 148.08855Q677.475 148.41667 677.1937 148.83855Q676.35 148.04167 674.85 147.15105Q675.1781 146.72917 675.3187 146.40105ZM668.5687 138.19792Q669.3656 139.04167 669.9281 139.83855Q669.5531 140.07292 669.1781 140.40105Q668.5687 139.41667 667.8656 138.76042Q668.2875 138.47917 668.5687 138.19792ZM672.08435 141.85417Q673.3031 142.65105 673.9125 143.02605Q673.6781 143.35417 673.39685 143.77605Q672.45935 142.97917 671.6625 142.5573Q671.89685 142.1823 672.08435 141.85417ZM671.2406 143.21355Q672.3187 143.82292 673.0687 144.29167Q672.83435 144.6198 672.5531 145.04167Q671.3812 144.19792 670.8187 143.91667Q671.0531 143.58855 671.2406 143.21355ZM683.4281 140.35417Q683.4281 138.76042 683.3812 137.91667L684.45935 137.91667Q684.3656 138.6198 684.3656 140.35417L687.9281 140.35417Q687.83435 140.77605 687.6 143.54167L689.3812 143.54167Q689.14685 146.58855 689.0062 147.04167Q688.8656 147.47917 688.27185 147.65105Q687.6937 147.8073 686.9437 147.90105Q686.8031 147.15105 686.52185 146.82292Q687.3656 146.8698 687.7562 146.77605Q688.1625 146.6823 688.20935 146.16667L688.35 144.4323L684.3656 144.4323L684.3656 146.91667Q684.3656 147.85417 684.4125 148.7448L683.2875 148.7448Q683.4281 147.90105 683.4281 146.96355L683.4281 144.4323L681.225 144.4323Q680.5687 144.4323 679.4437 144.47917L679.4437 143.4948Q680.4281 143.54167 681.3187 143.54167L683.4281 143.54167L683.4281 141.15105L681.6 141.15105Q681.3187 141.15105 680.33435 141.19792L680.33435 140.3073Q681.27185 140.35417 681.9281 140.35417L683.4281 140.35417ZM686.6625 143.54167L686.85 141.15105L684.3656 141.15105L684.3656 143.54167L686.6625 143.54167ZM687.27185 137.91667Q687.8812 138.4323 688.39685 138.9323Q688.9125 139.41667 689.4281 139.97917Q688.8656 140.44792 688.6781 140.63542Q688.2562 139.97917 686.5687 138.52605Q687.0375 138.15105 687.27185 137.91667Z" fill-rule="nonzero"/><path fill="#1a1a1a" d="M699.9437 143.91667L694.2562 146.33855L694.2562 145.29167L698.7562 143.41667L694.2562 141.57292L694.2562 140.52605L699.9437 142.9323L699.9437 143.91667ZM704.1 145.40105L705.1625 145.26042Q705.33435 146.15105 705.77185 146.5573Q706.20935 146.94792 706.83435 146.94792Q707.58435 146.94792 708.1 146.4323Q708.6156 145.91667 708.6156 145.15105Q708.6156 144.4323 708.1312 143.96355Q707.6625 143.47917 706.9281 143.47917Q706.6312 143.47917 706.1781 143.60417L706.3031 142.66667Q706.4125 142.6823 706.475 142.6823Q707.14685 142.6823 707.6781 142.33855Q708.225 141.97917 708.225 141.2448Q708.225 140.66667 707.83435 140.29167Q707.4437 139.90105 706.8187 139.90105Q706.20935 139.90105 705.7875 140.29167Q705.3812 140.6823 705.27185 141.44792L704.20935 141.26042Q704.39685 140.21355 705.08435 139.63542Q705.77185 139.04167 706.7875 139.04167Q707.4906 139.04167 708.08435 139.35417Q708.6781 139.65105 708.9906 140.16667Q709.3031 140.6823 709.3031 141.27605Q709.3031 141.82292 709.0062 142.29167Q708.70935 142.7448 708.1312 143.01042Q708.8812 143.1823 709.3031 143.7448Q709.725 144.29167 709.725 145.13542Q709.725 146.26042 708.89685 147.04167Q708.08435 147.82292 706.83435 147.82292Q705.70935 147.82292 704.95935 147.15105Q704.20935 146.46355 704.1 145.40105ZM711.1 143.4323Q711.1 141.90105 711.4125 140.97917Q711.725 140.04167 712.33435 139.54167Q712.95935 139.04167 713.89685 139.04167Q714.58435 139.04167 715.1 139.32292Q715.6312 139.60417 715.975 140.13542Q716.3187 140.65105 716.5062 141.40105Q716.6937 142.15105 716.6937 143.4323Q716.6937 144.94792 716.3812 145.8698Q716.08435 146.79167 715.45935 147.3073Q714.85 147.8073 713.89685 147.8073Q712.6625 147.8073 711.9437 146.91667Q711.1 145.85417 711.1 143.4323ZM712.1781 143.4323Q712.1781 145.54167 712.6781 146.2448Q713.1781 146.94792 713.89685 146.94792Q714.6312 146.94792 715.1156 146.2448Q715.6156 145.54167 715.6156 143.4323Q715.6156 141.3073 715.1156 140.6198Q714.6312 139.91667 713.8812 139.91667Q713.1625 139.91667 712.725 140.52605Q712.1781 141.3073 712.1781 143.4323ZM718.39685 147.66667L718.39685 141.44792L719.33435 141.44792L719.33435 142.32292Q719.6312 141.85417 720.1156 141.58855Q720.6 141.3073 721.225 141.3073Q721.9125 141.3073 722.35 141.58855Q722.8031 141.8698 722.975 142.38542Q723.725 141.3073 724.89685 141.3073Q725.83435 141.3073 726.3187 141.82292Q726.8187 142.32292 726.8187 143.40105L726.8187 147.66667L725.77185 147.66667L725.77185 143.7448Q725.77185 143.1198 725.6625 142.83855Q725.5687 142.5573 725.3031 142.38542Q725.0375 142.21355 724.6625 142.21355Q724.0062 142.21355 723.5687 142.65105Q723.14685 143.08855 723.14685 144.0573L723.14685 147.66667L722.08435 147.66667L722.08435 143.6198Q722.08435 142.91667 721.8187 142.57292Q721.5687 142.21355 720.9906 142.21355Q720.5375 142.21355 720.1625 142.44792Q719.7875 142.6823 719.6156 143.13542Q719.4437 143.58855 719.4437 144.4323L719.4437 147.66667L718.39685 147.66667Z" fill-rule="nonzero"/><path stroke="#ff6d01" stroke-width="4.0" stroke-linecap="butt" d="M646.6 167.66667L658.6 167.66667" fill-rule="nonzero"/><path fill="#1a1a1a" d="M668.1 163.22917Q672.1312 163.1823 675.7406 162.29167L676.35 163.04167Q676.6781 163.46355 676.1156 163.32292Q674.6156 163.65105 673.1156 163.79167L673.1156 165.47917L676.8187 165.47917L676.8187 166.3698L673.1156 166.3698L673.1156 167.96355L677.8031 167.96355L677.8031 168.85417L673.1156 168.85417L673.1156 171.66667Q673.1156 172.51042 672.3187 172.51042L671.1 172.51042L670.8656 171.47917L672.0375 171.47917Q672.1781 171.47917 672.1781 171.33855L672.1781 168.85417L667.39685 168.85417L667.39685 167.96355L672.1781 167.96355L672.1781 166.3698L668.3812 166.3698L668.3812 165.47917L672.1781 165.47917L672.1781 163.9323Q670.20935 164.1198 668.33435 164.1198L668.1 163.22917ZM682.725 171.76042Q684.45935 170.96355 684.45935 168.2448L684.45935 162.85417L688.1156 162.85417L688.1156 170.96355Q688.1156 171.33855 688.4437 171.33855L688.725 171.33855Q688.95935 171.33855 689.0062 171.01042L689.1 170.02605L690.08435 170.40105L689.89685 171.57292Q689.8031 172.22917 689.14685 172.22917L688.02185 172.22917Q687.1781 172.22917 687.1781 171.4323L687.1781 163.7448L685.39685 163.7448L685.39685 168.19792Q685.39685 171.57292 683.3812 172.65105L682.725 171.76042ZM682.4437 172.65105L681.5062 172.65105L681.5062 167.8698Q680.85 169.3698 679.8656 170.44792L679.2562 169.41667Q681.1312 167.4948 681.4125 165.4323L679.5375 165.4323L679.5375 164.54167L681.5062 164.54167L681.5062 162.0573L682.39685 162.0573Q682.8656 162.10417 682.4437 162.33855L682.4437 164.54167L684.08435 164.54167L684.08435 165.4323L682.4437 165.4323L682.4437 166.83855Q683.2875 167.21355 684.1312 167.8698L683.6156 168.94792Q683.0531 168.33855 682.4437 167.82292L682.4437 172.65105ZM693.45935 165.15105Q693.9281 165.19792 693.5062 165.4323L693.5062 172.7448L692.5687 172.7448L692.5687 166.7448Q692.14685 167.58855 691.6312 168.15105L691.02185 167.16667Q692.6625 165.47917 693.225 162.0573L694.2562 162.33855Q694.6781 162.47917 694.1625 162.66667Q693.8812 163.97917 693.45935 165.15105ZM698.2875 161.96355Q698.6625 162.01042 698.33435 162.2448L698.33435 163.41667L701.6625 163.41667L701.6625 164.3073L698.33435 164.3073L698.33435 165.33855L701.0062 165.33855L701.0062 168.90105L700.0687 168.90105L700.0687 168.52605L698.33435 168.52605Q698.33435 169.46355 697.95935 170.35417Q699.1312 171.15105 701.89685 171.6198L701.5687 172.65105Q699.08435 172.32292 697.4906 171.15105Q696.3187 172.3698 694.1625 172.79167L693.83435 171.90105Q695.8031 171.57292 696.7875 170.58855Q695.85 169.7448 695.475 168.90105L696.0375 168.52605L694.725 168.52605L694.725 165.33855L697.39685 165.33855L697.39685 164.3073L694.20935 164.3073L694.20935 163.41667L697.39685 163.41667L697.39685 161.96355L698.2875 161.96355ZM697.39685 167.77605L697.39685 166.08855L695.6625 166.08855L695.6625 167.77605L697.39685 167.77605ZM700.0687 167.77605L700.0687 166.08855L698.33435 166.08855L698.33435 167.77605L700.0687 167.77605ZM697.20935 169.79167Q697.39685 169.22917 697.39685 168.52605L696.225 168.52605Q696.6 169.1823 697.20935 169.79167ZM712.3031 168.76042L709.2562 168.76042L709.2562 172.32292L708.3187 172.32292L708.3187 168.76042L705.5062 168.76042Q705.4125 171.19792 704.0531 172.65105L703.3031 171.90105Q704.5687 170.4948 704.5687 168.6198L704.5687 162.6198L713.2406 162.6198L713.2406 171.57292Q713.2406 172.32292 712.4906 172.32292L711.1781 172.32292L710.9437 171.29167L712.1156 171.29167Q712.3031 171.29167 712.3031 171.10417L712.3031 168.76042ZM705.5062 166.13542L705.5062 167.8698L708.3187 167.8698L708.3187 166.13542L705.5062 166.13542ZM705.5062 163.51042L705.5062 165.2448L708.3187 165.2448L708.3187 163.51042L705.5062 163.51042ZM709.2562 166.13542L709.2562 167.8698L712.3031 167.8698L712.3031 166.13542L709.2562 166.13542ZM709.2562 163.51042L709.2562 165.2448L712.3031 165.2448L712.3031 163.51042L709.2562 163.51042Z" fill-rule="nonzero"/><path fill="#1a1a1a" d="M719.33435 163.08855Q719.2875 164.77605 719.2875 167.16667Q719.2875 169.5573 719.33435 170.91667L718.35 170.91667L718.35 170.02605L716.475 170.02605L716.475 171.57292L715.4906 171.57292Q715.5375 169.41667 715.5375 167.26042Q715.5375 165.0573 715.4906 163.08855L719.33435 163.08855ZM723.7406 164.4948Q723.7406 163.08855 723.6937 161.8698L724.725 161.8698Q724.6781 163.08855 724.6781 164.4948Q725.3812 164.4948 726.1781 164.44792L726.1781 165.33855Q725.3812 165.29167 724.6781 165.29167L724.6781 171.57292Q724.6781 172.27605 724.1156 172.46355Q723.5531 172.65105 722.6625 172.7448Q722.6625 172.1823 722.14685 171.66667Q723.0375 171.76042 723.3812 171.71355Q723.7406 171.66667 723.7406 171.10417L723.7406 165.29167Q721.39685 165.29167 719.8031 165.33855L719.8031 164.44792Q721.3031 164.4948 723.7406 164.4948ZM718.35 169.22917L718.35 166.88542L716.475 166.88542L716.475 169.22917L718.35 169.22917ZM718.35 166.08855L718.35 163.88542L716.475 163.88542L716.475 166.08855L718.35 166.08855ZM721.2562 166.5573Q721.8656 167.54167 722.4281 168.66667Q721.95935 168.8073 721.4437 169.08855Q721.0687 167.96355 720.3656 166.97917Q720.7875 166.79167 721.2562 166.5573ZM729.8812 166.41667L729.8812 163.32292Q729.8812 162.90105 729.83435 162.10417L730.8656 162.10417Q730.8187 162.9948 730.8187 163.27605L730.8187 166.41667L736.4906 166.41667Q737.1 166.41667 737.8031 166.3698L737.8031 167.3073Q736.9125 167.26042 736.1625 167.26042L733.4437 167.26042Q733.77185 168.19792 734.4437 169.08855Q735.1312 169.97917 736.0687 170.57292Q737.0062 171.15105 737.7562 171.38542Q737.14685 171.76042 736.8187 172.32292Q735.83435 171.8073 734.9906 171.10417Q734.14685 170.40105 733.4906 169.40105Q732.83435 168.38542 732.5062 167.26042L730.8187 167.26042L730.8187 170.96355Q732.1781 170.1198 732.64685 169.69792Q732.975 170.21355 733.3031 170.63542Q732.4125 171.0573 731.52185 171.6823Q730.6312 172.32292 730.20935 172.7448Q729.83435 172.22917 729.5062 171.85417Q729.8812 171.47917 729.8812 170.8698L729.8812 167.26042L728.8031 167.26042Q728.14685 167.26042 727.3031 167.3073L727.3031 166.3698Q728.14685 166.41667 728.70935 166.41667L729.8812 166.41667ZM735.7875 162.85417Q735.27185 163.27605 734.2562 164.29167Q733.2562 165.29167 732.27185 166.22917Q731.85 165.66667 731.5687 165.47917Q732.3656 164.91667 733.35 163.88542Q734.33435 162.85417 734.85 162.10417Q735.225 162.4323 735.7875 162.85417Z" fill-rule="nonzero"/><path fill="#1a1a1a" d="M742.2562 167.91667L742.2562 166.9323L747.9437 164.52605L747.9437 165.57292L743.4281 167.41667L747.9437 169.29167L747.9437 170.33855L742.2562 167.91667ZM757.64685 170.65105L757.64685 171.66667L751.95935 171.66667Q751.95935 171.29167 752.08435 170.9323Q752.3031 170.35417 752.77185 169.79167Q753.2562 169.22917 754.1625 168.4948Q755.5687 167.33855 756.0531 166.66667Q756.5531 165.9948 756.5531 165.40105Q756.5531 164.77605 756.1 164.35417Q755.64685 163.91667 754.9281 163.91667Q754.1625 163.91667 753.70935 164.3698Q753.2562 164.82292 753.2406 165.63542L752.1625 165.52605Q752.27185 164.3073 752.9906 163.6823Q753.725 163.04167 754.95935 163.04167Q756.1937 163.04167 756.9125 163.72917Q757.6312 164.41667 757.6312 165.4323Q757.6312 165.94792 757.4125 166.44792Q757.20935 166.9323 756.70935 167.4948Q756.225 168.04167 755.1 168.9948Q754.14685 169.79167 753.8656 170.08855Q753.6 170.3698 753.4281 170.65105L757.64685 170.65105ZM759.39685 171.66667L759.39685 163.07292L760.4437 163.07292L760.4437 166.15105Q761.1781 165.3073 762.3031 165.3073Q763.0062 165.3073 763.5062 165.58855Q764.02185 165.85417 764.2406 166.33855Q764.45935 166.8073 764.45935 167.72917L764.45935 171.66667L763.4125 171.66667L763.4125 167.72917Q763.4125 166.9323 763.0687 166.57292Q762.725 166.21355 762.1 166.21355Q761.6312 166.21355 761.20935 166.46355Q760.8031 166.69792 760.6156 167.1198Q760.4437 167.52605 760.4437 168.26042L760.4437 171.66667L759.39685 171.66667Z" fill-rule="nonzero"/><path stroke="#46bdc6" stroke-width="4.0" stroke-linecap="butt" d="M646.6 191.66667L658.6 191.66667" fill-rule="nonzero"/><path fill="#1a1a1a" d="M669.4125 190.65105Q668.6156 190.08855 667.58435 189.57292L668.1 188.72917Q669.0375 189.15105 669.9281 189.76042L669.4125 190.65105ZM669.83435 188.16667Q669.0375 187.60417 668.0062 187.08855L668.475 186.29167Q669.4125 186.66667 670.35 187.27605L669.83435 188.16667ZM668.9906 192.52605L667.3031 192.52605L667.3031 191.63542L669.9281 191.63542L669.9281 194.40105Q671.0531 195.38542 672.975 195.38542L678.0375 195.38542L677.7562 196.27605L672.975 196.27605Q670.725 196.27605 669.5062 195.15105Q668.85 195.85417 667.9125 196.65105L667.2562 195.6198Q668.1937 195.15105 668.9906 194.40105L668.9906 192.52605ZM675.64685 191.16667Q676.8187 192.47917 677.7562 194.40105L676.77185 194.91667Q676.58435 194.40105 676.35 193.9323L671.2875 194.54167Q671.2406 194.91667 671.0531 194.6823L670.5375 193.60417L671.8031 193.5573L672.7406 190.08855L670.39685 190.08855L670.39685 189.19792L677.6625 189.19792L677.6625 190.08855L673.8187 190.08855L672.6937 193.46355L675.9281 193.1823Q675.3656 192.33855 674.85 191.6823L675.64685 191.16667ZM676.725 187.51042L671.2406 187.51042L671.2406 186.6198L676.725 186.6198L676.725 187.51042Z" fill-rule="nonzero"/><path fill="#1a1a1a" d="M686.33435 186.01042Q686.89685 186.15105 687.4125 186.15105Q687.3187 186.6198 687.2875 187.21355Q687.27185 187.79167 687.27185 188.63542L689.89685 188.63542Q689.85 189.2448 689.8031 189.9948L689.5687 195.33855Q689.4281 196.27605 688.7875 196.47917Q688.1625 196.69792 687.3656 196.79167Q687.225 196.22917 686.89685 195.76042Q687.9281 195.8073 688.3031 195.65105Q688.6781 195.47917 688.6781 195.01042L688.95935 189.4323L687.27185 189.4323Q687.1781 191.4948 686.95935 192.57292Q686.7562 193.65105 686.3031 194.57292Q685.8656 195.47917 684.5062 196.9323Q684.0375 196.46355 683.6625 196.32292Q684.5531 195.6198 685.1156 194.85417Q685.6781 194.07292 685.9125 193.26042Q686.14685 192.4323 686.2406 191.54167Q686.33435 190.65105 686.3812 189.4323L685.58435 189.4323Q685.0687 189.4323 684.3656 189.47917L684.3656 188.58855Q685.0687 188.63542 685.6781 188.63542L686.3812 188.63542L686.3812 187.32292Q686.3812 186.66667 686.33435 186.01042ZM679.1156 189.9948Q679.8187 190.04167 680.8031 190.04167L682.58435 190.04167Q683.4281 190.04167 684.5062 189.9948L684.5062 190.83855Q683.4281 190.79167 682.6312 190.79167L682.1156 190.79167Q681.83435 191.54167 681.475 192.38542Q681.1312 193.22917 680.6625 194.07292Q682.4906 193.88542 683.4281 193.69792Q683.1937 193.13542 682.6781 192.29167Q683.1937 192.01042 683.4281 191.82292Q683.89685 192.66667 684.225 193.26042Q684.5531 193.83855 684.9281 194.6823Q684.5531 194.91667 684.08435 195.15105Q683.89685 194.72917 683.7562 194.44792Q682.2562 194.6823 681.33435 194.82292Q680.4281 194.96355 679.77185 195.19792Q679.58435 194.72917 679.3031 194.3073Q679.9125 193.9323 680.39685 192.8073Q680.89685 191.6823 681.1312 190.79167L680.8031 190.79167Q679.8187 190.79167 679.1156 190.83855L679.1156 189.9948ZM682.35 187.3698Q683.14685 187.3698 684.1312 187.32292L684.1312 188.21355Q683.14685 188.16667 682.35 188.16667L681.225 188.16667Q680.475 188.16667 679.77185 188.21355L679.77185 187.32292Q680.4281 187.3698 681.1781 187.3698L682.35 187.3698Z" fill-rule="nonzero"/><path fill="#1a1a1a" d="M699.9437 191.91667L694.2562 194.33855L694.2562 193.29167L698.7562 191.41667L694.2562 189.57292L694.2562 188.52605L699.9437 190.9323L699.9437 191.91667ZM708.0687 195.66667L707.02185 195.66667L707.02185 188.94792Q706.6312 189.3073 706.0062 189.6823Q705.39685 190.04167 704.9125 190.21355L704.9125 189.19792Q705.7875 188.77605 706.4437 188.19792Q707.1156 187.60417 707.39685 187.04167L708.0687 187.04167L708.0687 195.66667ZM711.39685 195.66667L711.39685 187.07292L712.4437 187.07292L712.4437 190.15105Q713.1781 189.3073 714.3031 189.3073Q715.0062 189.3073 715.5062 189.58855Q716.02185 189.85417 716.2406 190.33855Q716.45935 190.8073 716.45935 191.72917L716.45935 195.66667L715.4125 195.66667L715.4125 191.72917Q715.4125 190.9323 715.0687 190.57292Q714.725 190.21355 714.1 190.21355Q713.6312 190.21355 713.20935 190.46355Q712.8031 190.69792 712.6156 191.1198Q712.4437 191.52605 712.4437 192.26042L712.4437 195.66667L711.39685 195.66667Z" fill-rule="nonzero"/><path stroke="#7baaf7" stroke-width="4.0" stroke-linecap="butt" d="M646.6 215.66667L658.6 215.66667" fill-rule="nonzero"/><path fill="#1a1a1a" d="M672.7875 212.4948Q672.1312 212.4948 671.1 212.54167L671.1 211.69792Q672.1312 211.7448 672.83435 211.7448L673.39685 211.7448Q673.8656 210.38542 673.9125 209.96355Q674.475 210.2448 674.9437 210.4323Q674.7562 210.6198 674.58435 211.02605Q674.4281 211.41667 674.2875 211.7448L676.02185 211.7448Q676.77185 211.7448 677.6625 211.69792L677.6625 212.54167Q677.0062 212.4948 676.02185 212.4948L674.0531 212.4948Q673.8187 213.0573 673.5375 213.76042L675.3656 213.76042Q675.3187 214.27605 675.3187 215.02605L675.3187 215.96355L675.9281 215.96355Q676.6312 215.96355 677.475 215.91667L677.475 216.76042Q676.6312 216.71355 675.9281 216.71355L675.3187 216.71355L675.3187 219.4323Q675.3187 220.22917 674.95935 220.46355Q674.6156 220.69792 673.4437 220.83855Q673.39685 220.3698 673.0687 219.85417Q674.2406 219.90105 674.35 219.71355Q674.475 219.52605 674.475 219.0573L674.475 216.71355L673.02185 216.71355Q672.6937 216.71355 672.4125 216.7448Q672.1312 216.76042 671.7562 216.90105Q671.5687 216.4323 671.3812 216.01042Q671.85 215.8698 672.45935 214.46355Q672.1312 214.46355 671.1937 214.51042L671.1937 213.71355Q672.27185 213.76042 672.6937 213.76042Q672.975 213.0573 673.1625 212.4948L672.7875 212.4948ZM669.6937 214.13542Q670.1156 213.47917 670.5375 212.35417Q670.95935 212.6823 671.4281 212.91667Q670.95935 213.52605 670.39685 214.51042Q669.83435 215.4948 668.6156 217.13542Q669.0375 217.04167 671.1 216.71355Q671.0062 217.22917 671.0531 217.51042Q670.02185 217.60417 667.8187 218.1198Q667.58435 217.65105 667.35 217.27605Q667.77185 217.04167 668.2562 216.41667Q668.7562 215.77605 669.3187 214.83855Q669.0375 214.79167 668.4906 214.8698Q667.95935 214.9323 667.4437 215.07292Q667.2562 214.65105 667.0687 214.1823Q667.5375 213.90105 668.1156 212.6823Q668.70935 211.46355 669.08435 210.29167Q669.6 210.6198 670.0687 210.76042Q669.6 211.46355 669.1937 212.2448Q668.8031 213.01042 668.1 214.1823Q669.1781 214.1823 669.6937 214.13542ZM671.14685 218.35417Q671.1 218.8698 671.14685 219.19792Q670.35 219.38542 669.33435 219.71355Q668.33435 220.04167 667.4906 220.46355Q667.35 219.94792 667.1625 219.4323Q668.3812 219.15105 668.8187 219.04167Q669.27185 218.91667 671.14685 218.35417ZM673.58435 218.02605Q673.4437 218.16667 672.7562 218.91667Q672.08435 219.66667 671.2406 220.5573Q670.9125 220.13542 670.6312 219.90105Q671.14685 219.47917 671.7562 218.8073Q672.3656 218.1198 672.83435 217.3698Q673.1156 217.69792 673.58435 218.02605ZM676.4906 217.3698Q677.70935 218.96355 678.225 219.85417Q677.7562 220.04167 677.3812 220.3698Q676.8656 219.33855 675.7875 217.88542Q676.1156 217.69792 676.4906 217.3698ZM674.475 215.96355L674.475 214.46355L673.3031 214.46355Q672.83435 215.44792 672.5531 215.96355L674.475 215.96355Z" fill-rule="nonzero"/><path fill="#1a1a1a" d="M680.85 216.01042L688.39685 216.01042L688.39685 220.5573L687.3187 220.5573L687.3187 220.13542L681.9281 220.13542L681.9281 220.65105L680.85 220.65105L680.85 216.01042ZM681.9281 216.90105L681.9281 219.2448L687.3187 219.2448L687.3187 216.90105L681.9281 216.90105ZM680.4281 213.90105L684.0375 213.90105L684.0375 212.35417L679.35 212.35417L679.35 211.46355L684.0375 211.46355L684.0375 209.96355L685.0687 209.96355Q685.5375 210.0573 685.1156 210.33855L685.1156 211.46355L689.85 211.46355L689.85 212.35417L685.1156 212.35417L685.1156 213.90105L688.8187 213.90105L688.8187 214.79167L680.4281 214.79167L680.4281 213.90105ZM691.02185 215.26042Q692.8031 213.29167 693.225 210.01042L694.35 210.33855Q694.5375 210.52605 694.20935 210.57292Q694.0687 211.60417 693.5531 213.10417Q694.1156 213.2448 693.6937 213.47917L693.6937 220.65105L692.7562 220.65105L692.7562 214.7448Q692.4281 215.40105 691.8187 216.0573L691.02185 215.26042ZM702.0375 218.40105L701.9437 219.33855Q701.85 220.32292 700.9125 220.32292L696.0375 220.32292Q695.1937 220.32292 695.1937 219.52605L695.1937 214.97917L694.2562 215.26042L693.975 214.32292L695.1937 213.9948L695.1937 211.3698L696.08435 211.3698Q696.45935 211.41667 696.1312 211.65105L696.1312 213.71355L697.6312 213.29167L697.6312 210.15105L698.52185 210.15105Q698.89685 210.19792 698.5687 210.4323L698.5687 213.01042L700.2562 212.44792L700.39685 212.21355L701.2875 212.6823Q701.6625 212.82292 701.2875 213.01042L701.14685 216.8073Q701.1 217.69792 700.20935 217.69792L699.27185 217.69792L699.08435 216.8073L699.7875 216.8073Q700.20935 216.8073 700.20935 216.4323L700.3031 213.4323L698.5687 213.94792L698.5687 218.1198L697.6312 218.1198L697.6312 214.22917L696.1312 214.69792L696.1312 219.0573Q696.1312 219.4323 696.45935 219.4323L700.4906 219.4323Q700.8656 219.4323 700.9125 219.10417L701.0062 218.16667L702.0375 218.40105Z" fill-rule="nonzero"/><path fill="#1a1a1a" d="M711.9437 215.91667L706.2562 218.33855L706.2562 217.29167L710.7562 215.41667L706.2562 213.57292L706.2562 212.52605L711.9437 214.9323L711.9437 215.91667ZM720.0687 219.66667L719.02185 219.66667L719.02185 212.94792Q718.6312 213.3073 718.0062 213.6823Q717.39685 214.04167 716.9125 214.21355L716.9125 213.19792Q717.7875 212.77605 718.4437 212.19792Q719.1156 211.60417 719.39685 211.04167L720.0687 211.04167L720.0687 219.66667ZM723.39685 219.66667L723.39685 211.07292L724.4437 211.07292L724.4437 214.15105Q725.1781 213.3073 726.3031 213.3073Q727.0062 213.3073 727.5062 213.58855Q728.02185 213.85417 728.2406 214.33855Q728.45935 214.8073 728.45935 215.72917L728.45935 219.66667L727.4125 219.66667L727.4125 215.72917Q727.4125 214.9323 727.0687 214.57292Q726.725 214.21355 726.1 214.21355Q725.6312 214.21355 725.20935 214.46355Q724.8031 214.69792 724.6156 215.1198Q724.4437 215.52605 724.4437 216.26042L724.4437 219.66667L723.39685 219.66667Z" fill-rule="nonzero"/><path fill="#757575" d="M34.4625 41.7125L34.4625 43.4L25.009375 43.4Q24.99375 42.759377 25.2125 42.18125Q25.571875 41.2125 26.36875 40.275Q27.165625 39.3375 28.665625 38.103127Q31.009375 36.196877 31.821875 35.0875Q32.65 33.9625 32.65 32.9625Q32.65 31.915627 31.9 31.196877Q31.15 30.478127 29.946875 30.478127Q28.68125 30.478127 27.915625 31.243752Q27.15 32.009377 27.15 33.353127L25.3375 33.165627Q25.525 31.150002 26.728125 30.087502Q27.946875 29.025002 29.99375 29.025002Q32.040627 29.025002 33.24375 30.165627Q34.446877 31.306252 34.446877 32.99375Q34.446877 33.853127 34.0875 34.696877Q33.74375 35.525 32.93125 36.446877Q32.11875 37.353127 30.228125 38.9625Q28.634375 40.290627 28.18125 40.759377Q27.74375 41.228127 27.446875 41.7125L34.4625 41.7125ZM36.228127 36.3375Q36.228127 33.80625 36.74375 32.259377Q37.275 30.696877 38.30625 29.868752Q39.3375 29.025002 40.9 29.025002Q42.05625 29.025002 42.915627 29.493752Q43.790627 29.946877 44.353127 30.821877Q44.915627 31.696877 45.24375 32.9625Q45.571877 34.2125 45.571877 36.3375Q45.571877 38.853127 45.040627 40.4Q44.525 41.946877 43.49375 42.80625Q42.478127 43.65 40.9 43.65Q38.821877 43.65 37.65 42.165627Q36.228127 40.36875 36.228127 36.3375ZM38.040627 36.3375Q38.040627 39.86875 38.853127 41.040627Q39.68125 42.196877 40.9 42.196877Q42.103127 42.196877 42.93125 41.025Q43.759377 39.853127 43.759377 36.3375Q43.759377 32.80625 42.93125 31.650002Q42.103127 30.478127 40.884377 30.478127Q39.665627 30.478127 38.946877 31.509377Q38.040627 32.80625 38.040627 36.3375ZM56.4625 41.7125L56.4625 43.4L47.009377 43.4Q46.99375 42.759377 47.2125 42.18125Q47.571877 41.2125 48.36875 40.275Q49.165627 39.3375 50.665627 38.103127Q53.009377 36.196877 53.821877 35.0875Q54.65 33.9625 54.65 32.9625Q54.65 31.915627 53.9 31.196877Q53.15 30.478127 51.946877 30.478127Q50.68125 30.478127 49.915627 31.243752Q49.15 32.009377 49.15 33.353127L47.3375 33.165627Q47.525 31.150002 48.728127 30.087502Q49.946877 29.025002 51.99375 29.025002Q54.040627 29.025002 55.24375 30.165627Q56.446877 31.306252 56.446877 32.99375Q56.446877 33.853127 56.0875 34.696877Q55.74375 35.525 54.93125 36.446877Q54.11875 37.353127 52.228127 38.9625Q50.634377 40.290627 50.18125 40.759377Q49.74375 41.228127 49.446877 41.7125L56.4625 41.7125ZM64.85313 43.4L63.0875 43.4L63.0875 32.196877Q62.4625 32.80625 61.43125 33.415627Q60.4 34.009377 59.571877 34.321877L59.571877 32.61875Q61.05625 31.931252 62.15 30.946877Q63.259377 29.946877 63.7125 29.025002L64.85313 29.025002L64.85313 43.4Z" fill-rule="nonzero"/><path fill="#757575" d="M80.65 31.212502Q79.16563 33.790627 76.97813 35.509377L75.88438 34.103127Q79.0875 31.759377 80.25938 27.306252L82.05625 27.775002Q82.36875 28.087502 81.82188 28.165627L81.19688 29.728127L92.2125 29.728127L92.2125 31.212502L86.50938 31.212502L86.50938 33.86875L91.19688 33.86875L91.19688 35.353127L86.50938 35.353127L86.50938 38.86875L93.07188 38.86875L93.07188 40.353127L86.50938 40.353127L86.50938 45.040627L84.94688 45.040627L84.94688 40.353127L75.9625 40.353127L75.9625 38.86875L79.47813 38.86875L79.47813 33.86875L84.94688 33.86875L84.94688 31.212502L80.65 31.212502ZM81.04063 38.86875L84.94688 38.86875L84.94688 35.353127L81.04063 35.353127L81.04063 38.86875ZM98.775 36.603127L98.775 32.61875L95.9625 32.61875L95.9625 31.134377L98.775 31.134377L98.775 27.306252L100.25938 27.306252Q100.88438 27.384377 100.3375 27.775002L100.3375 31.134377L102.8375 31.134377L102.8375 32.61875L100.3375 32.61875L100.3375 36.2125L102.99375 35.353127L103.38438 36.8375L100.3375 37.93125L100.3375 43.790627Q100.3375 45.040627 99.0875 45.040627L97.36875 45.040627L96.97813 43.55625L98.4625 43.55625Q98.775 43.55625 98.775 43.24375L98.775 38.4L96.5875 39.103127Q96.50938 39.80625 96.19688 39.3375L95.57188 37.384377L98.775 36.603127ZM113.30625 31.212502L109.47813 31.212502L109.47813 43.7125Q109.47813 44.9625 108.22813 44.9625L106.50938 44.9625L106.19688 43.478127L107.60313 43.478127Q107.91563 43.478127 107.91563 43.165627L107.91563 31.212502L103.61875 31.212502L103.61875 29.493752L113.30625 29.493752L113.30625 31.212502ZM122.99375 34.728127L122.99375 27.306252L124.63438 27.306252Q125.41563 27.462502 124.7125 27.931252L124.7125 30.353127L131.04062 30.353127L131.04062 31.993752L124.7125 31.993752L124.7125 34.728127L132.91562 34.728127L132.91562 36.36875L124.7125 36.36875L124.7125 45.196877L122.99375 45.196877L122.99375 36.36875L115.80625 36.36875L115.80625 34.728127L122.99375 34.728127ZM126.50938 37.540627Q128.85312 38.7125 131.82187 40.978127L130.72812 42.61875Q127.8375 40.196877 125.57188 39.025L126.50938 37.540627ZM140.9625 30.431252Q141.50937 31.212502 141.82187 32.696877L140.49374 33.321877Q140.18124 31.915627 139.79062 31.134377L140.9625 30.431252ZM137.44687 31.837502Q137.29062 34.571877 136.74374 37.071877L135.18124 36.759377Q135.80624 33.7125 135.88437 31.134377L137.36874 31.368752Q138.07187 31.525002 137.44687 31.837502ZM139.55624 45.196877L137.99374 45.196877L137.99374 27.150002L139.47812 27.150002Q140.25937 27.306252 139.55624 27.775002L139.55624 45.196877ZM152.8375 28.946877L152.8375 30.196877L148.07187 30.196877L148.07187 31.212502L151.9 31.212502L151.9 32.4625L148.07187 32.4625L148.07187 33.55625L153.38437 33.55625L153.38437 34.80625L141.43124 34.80625L141.43124 33.55625L146.50937 33.55625L146.50937 32.4625L142.68124 32.4625L142.68124 31.212502L146.50937 31.212502L146.50937 30.196877L141.82187 30.196877L141.82187 28.946877L146.50937 28.946877L146.50937 27.071877L147.99374 27.071877Q148.61874 27.150002 148.07187 27.540627L148.07187 28.946877L152.8375 28.946877ZM151.66562 35.821877L151.66562 44.025Q151.66562 45.040627 150.57187 45.040627L149.24374 45.040627L148.775 43.55625L149.79062 43.55625Q150.10312 43.55625 150.10312 43.24375L150.10312 41.759377L144.7125 41.759377L144.7125 45.275L143.15 45.275L143.15 35.821877L151.66562 35.821877ZM150.10312 37.071877L144.7125 37.071877L144.7125 38.165627L150.10312 38.165627L150.10312 37.071877ZM150.10312 39.415627L144.7125 39.415627L144.7125 40.509377L150.10312 40.509377L150.10312 39.415627ZM157.05624 43.478127Q156.82187 44.884377 156.35312 43.86875L155.57187 42.4625Q157.68124 40.040627 159.7125 36.99375L160.80624 38.0875Q158.93124 41.134377 157.05624 43.478127ZM158.775 32.93125Q157.91562 31.525002 156.275 29.806252L157.60312 28.634377Q159.24374 30.118752 160.18124 31.759377L158.775 32.93125ZM167.36874 36.05625L165.72812 36.05625Q165.72812 43.321877 159.94687 44.9625L159.32187 43.478127Q164.24374 42.228127 164.16562 36.05625L163.07187 36.05625L163.07187 36.915627L161.50937 36.915627L161.50937 28.087502L171.97812 28.087502L171.97812 36.525L170.41562 36.525L170.41562 36.05625L168.93124 36.05625L168.93124 42.384377Q168.93124 43.009377 169.55624 43.009377L170.88437 43.009377Q171.5875 43.009377 171.66562 42.384377L171.82187 41.290627L173.30624 41.915627L173.07187 43.0875Q172.75937 44.49375 171.275 44.49375L168.85312 44.49375Q167.36874 44.49375 167.36874 42.853127L167.36874 36.05625ZM163.07187 29.571877L163.07187 34.571877L170.41562 34.571877L170.41562 29.571877L163.07187 29.571877Z" fill-rule="nonzero"/></svg>